M48
; DRILL file {KiCad 8.0.2} date 2024-05-19T23:46:22+0900
; FORMAT={-:-/ absolute / metric / decimal}
; #@! TF.CreationDate,2024-05-19T23:46:22+09:00
; #@! TF.GenerationSoftware,Kicad,Pcbnew,8.0.2
; #@! TF.FileFunction,MixedPlating,1,2
FMAT,2
METRIC
; #@! TA.AperFunction,Plated,PTH,ViaDrill
T1C0.300
; #@! TA.AperFunction,Plated,PTH,ComponentDrill
T2C0.787
; #@! TA.AperFunction,Plated,PTH,ComponentDrill
T3C0.800
; #@! TA.AperFunction,Plated,PTH,ComponentDrill
T4C1.000
%
G90
G05
T1
X1.905Y88.9
X1.905Y1.905
X5.08Y34.29
X6.985Y85.725
X6.985Y78.105
X7.62Y62.23
X7.62Y56.515
X7.62Y51.435
X7.62Y47.625
X7.62Y43.815
X8.255Y40.005
X8.255Y37.465
X8.89Y24.765
X8.89Y19.685
X8.89Y14.605
X8.89Y9.525
X14.605Y33.655
X14.605Y9.525
X19.05Y28.575
X20.32Y24.765
X20.32Y19.685
X20.32Y14.605
X20.32Y9.525
X20.955Y56.515
X20.955Y55.245
X23.495Y85.725
X23.495Y83.185
X23.495Y76.835
X23.495Y66.675
X23.495Y45.085
X23.495Y38.735
X26.035Y9.525
X26.67Y56.515
X26.67Y53.975
X27.94Y83.185
X27.94Y80.645
X27.94Y75.565
X27.94Y67.945
X27.94Y65.405
X27.94Y40.005
X28.448Y86.731
X29.21Y56.515
X29.21Y52.07
X31.115Y53.975
X31.115Y50.165
X31.75Y85.725
X31.75Y28.575
X31.75Y26.035
X31.75Y23.495
X31.75Y19.685
X31.75Y14.605
X31.75Y9.525
X31.877Y83.185
X32.639Y48.895
X37.465Y9.525
X38.735Y40.005
X38.735Y34.036
X42.545Y76.835
X42.545Y70.485
X42.545Y54.61
X43.18Y26.035
X43.18Y23.495
X43.18Y19.685
X43.18Y14.605
X43.18Y9.525
X44.45Y52.705
X44.45Y40.005
X44.45Y28.575
X48.675Y34.012
X49.432Y34.037
X49.53Y76.835
X49.53Y70.485
X49.53Y60.325
X49.53Y52.705
X54.61Y23.495
X54.61Y14.605
X59.69Y76.835
X59.69Y70.485
X59.69Y60.325
X59.69Y52.705
X63.5Y76.835
X66.04Y74.295
X66.04Y70.485
X66.04Y52.705
X66.04Y26.035
X66.04Y19.685
X66.04Y14.605
X67.437Y53.467
X67.945Y76.835
X67.968Y52.578
X68.707Y53.975
X71.12Y74.295
X71.12Y66.675
X71.12Y64.135
X71.12Y59.055
X71.755Y24.765
X73.66Y46.355
X77.47Y24.765
X77.47Y14.605
X78.74Y65.405
X78.74Y62.865
X79.375Y60.325
X83.185Y60.325
X85.09Y88.9
X85.09Y1.905
T2
X34.29Y85.725
X34.29Y83.185
X34.29Y80.645
X34.29Y78.105
X34.29Y75.565
X34.29Y73.025
X34.29Y70.485
X34.29Y67.945
X34.29Y65.405
X34.29Y62.865
X34.29Y60.325
X34.29Y57.785
X34.29Y55.245
X34.29Y52.705
X34.29Y50.165
X34.29Y47.625
X34.29Y45.085
X36.83Y85.725
X36.83Y83.185
X36.83Y80.645
X36.83Y78.105
X36.83Y75.565
X36.83Y73.025
X36.83Y70.485
X36.83Y67.945
X36.83Y65.405
X36.83Y62.865
X36.83Y60.325
X36.83Y57.785
X36.83Y55.245
X36.83Y52.705
X36.83Y50.165
X36.83Y47.625
X36.83Y45.085
X39.37Y85.725
X39.37Y83.185
X39.37Y80.645
X39.37Y78.105
X39.37Y75.565
X39.37Y73.025
X39.37Y70.485
X39.37Y67.945
X39.37Y65.405
X39.37Y62.865
X39.37Y60.325
X39.37Y57.785
X39.37Y55.245
X39.37Y52.705
X39.37Y50.165
X39.37Y47.625
X39.37Y45.085
X41.91Y85.725
X41.91Y83.185
X41.91Y80.645
X41.91Y50.165
X41.91Y47.625
X41.91Y45.085
X44.45Y85.725
X44.45Y83.185
X44.45Y80.645
X44.45Y50.165
X44.45Y47.625
X44.45Y45.085
X46.99Y85.725
X46.99Y83.185
X46.99Y80.645
X46.99Y50.165
X46.99Y47.625
X46.99Y45.085
X49.53Y85.725
X49.53Y83.185
X49.53Y80.645
X49.53Y50.165
X49.53Y47.625
X49.53Y45.085
X52.07Y85.725
X52.07Y83.185
X52.07Y80.645
X52.07Y50.165
X52.07Y47.625
X52.07Y45.085
X54.61Y85.725
X54.61Y83.185
X54.61Y80.645
X54.61Y50.165
X54.61Y47.625
X54.61Y45.085
X57.15Y85.725
X57.15Y83.185
X57.15Y80.645
X57.15Y50.165
X57.15Y47.625
X57.15Y45.085
X59.69Y85.725
X59.69Y83.185
X59.69Y80.645
X59.69Y50.165
X59.69Y47.625
X59.69Y45.085
X62.23Y85.725
X62.23Y83.185
X62.23Y80.645
X62.23Y50.165
X62.23Y47.625
X62.23Y45.085
X64.77Y85.725
X64.77Y83.185
X64.77Y80.645
X64.77Y50.165
X64.77Y47.625
X64.77Y45.085
X67.31Y85.725
X67.31Y83.185
X67.31Y80.645
X67.31Y50.165
X67.31Y47.625
X67.31Y45.085
X69.85Y85.725
X69.85Y83.185
X69.85Y80.645
X69.85Y78.105
X69.85Y75.565
X69.85Y73.025
X69.85Y70.485
X69.85Y67.945
X69.85Y65.405
X69.85Y62.865
X69.85Y60.325
X69.85Y57.785
X69.85Y55.245
X69.85Y52.705
X69.85Y50.165
X69.85Y47.625
X69.85Y45.085
X72.39Y85.725
X72.39Y83.185
X72.39Y80.645
X72.39Y78.105
X72.39Y75.565
X72.39Y73.025
X72.39Y70.485
X72.39Y67.945
X72.39Y65.405
X72.39Y62.865
X72.39Y60.325
X72.39Y57.785
X72.39Y55.245
X72.39Y52.705
X72.39Y50.165
X72.39Y47.625
X72.39Y45.085
X74.93Y85.725
X74.93Y83.185
X74.93Y80.645
X74.93Y78.105
X74.93Y75.565
X74.93Y73.025
X74.93Y70.485
X74.93Y67.945
X74.93Y65.405
X74.93Y62.865
X74.93Y60.325
X74.93Y57.785
X74.93Y55.245
X74.93Y52.705
X74.93Y50.165
X74.93Y47.625
X74.93Y45.085
T3
X5.09Y28.57
X5.09Y26.03
X5.09Y23.49
X5.09Y20.95
X5.09Y18.41
X5.09Y15.87
X5.09Y13.33
X5.09Y10.79
X5.09Y8.25
X5.09Y5.71
X10.18Y31.75
X12.68Y31.75
X12.71Y28.57
X12.71Y26.03
X12.71Y23.49
X12.71Y20.95
X12.71Y18.41
X12.71Y15.87
X12.71Y13.33
X12.71Y10.79
X12.71Y8.25
X12.71Y5.71
X16.52Y28.57
X16.52Y26.03
X16.52Y23.49
X16.52Y20.95
X16.52Y18.41
X16.52Y15.87
X16.52Y13.33
X16.52Y10.79
X16.52Y8.25
X16.52Y5.71
X21.63Y31.75
X24.13Y31.75
X24.14Y28.57
X24.14Y26.03
X24.14Y23.49
X24.14Y20.95
X24.14Y18.41
X24.14Y15.87
X24.14Y13.33
X24.14Y10.79
X24.14Y8.25
X24.14Y5.71
X27.95Y28.57
X27.95Y26.03
X27.95Y23.49
X27.95Y20.95
X27.95Y18.41
X27.95Y15.87
X27.95Y13.33
X27.95Y10.79
X27.95Y8.25
X27.95Y5.71
X33.04Y31.75
X35.54Y31.75
X35.57Y28.57
X35.57Y26.03
X35.57Y23.49
X35.57Y20.95
X35.57Y18.41
X35.57Y15.87
X35.57Y13.33
X35.57Y10.79
X35.57Y8.25
X35.57Y5.71
X39.38Y28.57
X39.38Y26.03
X39.38Y23.49
X39.38Y20.95
X39.38Y18.41
X39.38Y15.87
X39.38Y13.33
X39.38Y10.79
X39.38Y8.25
X39.38Y5.71
X42.545Y64.115
X42.545Y61.615
X44.47Y31.75
X46.97Y31.75
X47.0Y28.57
X47.0Y26.03
X47.0Y23.49
X47.0Y20.95
X47.0Y18.41
X47.0Y15.87
X47.0Y13.33
X47.0Y10.79
X47.0Y8.25
X47.0Y5.71
X49.53Y40.005
X50.8Y28.575
X50.8Y26.035
X50.8Y23.495
X50.8Y20.955
X50.8Y18.415
X50.8Y15.875
X50.8Y13.335
X50.8Y10.795
X52.07Y40.005
X54.61Y40.005
X55.92Y31.75
X57.15Y40.005
X58.42Y31.75
X58.42Y28.575
X58.42Y26.035
X58.42Y23.495
X58.42Y20.955
X58.42Y18.415
X58.42Y15.875
X58.42Y13.335
X58.42Y10.795
X59.69Y40.005
X62.24Y28.58
X62.24Y26.04
X62.24Y23.5
X62.24Y20.96
X62.24Y18.42
X62.24Y15.88
X62.24Y13.34
X66.04Y64.115
X66.04Y61.615
X67.36Y31.755
X69.86Y31.755
X69.86Y28.58
X69.86Y26.04
X69.86Y23.5
X69.86Y20.96
X69.86Y18.42
X69.86Y15.88
X69.86Y13.34
X73.69Y28.585
X73.69Y26.045
X73.69Y23.505
X73.69Y20.965
X73.69Y18.425
X73.69Y15.885
X73.69Y13.345
X78.81Y31.76
X81.31Y31.76
X81.31Y28.585
X81.31Y26.045
X81.31Y23.505
X81.31Y20.965
X81.31Y18.425
X81.31Y15.885
X81.31Y13.345
X81.32Y66.723
X81.32Y64.223
T4
X5.08Y85.725
X5.08Y83.185
X5.08Y80.645
X5.08Y78.105
X5.08Y75.565
X5.08Y73.025
X5.08Y70.485
X5.08Y67.945
X5.08Y65.405
X5.08Y62.865
X5.08Y60.325
X5.08Y57.785
X5.08Y55.245
X5.08Y52.705
X5.08Y50.165
X5.08Y47.625
X5.08Y45.085
X5.08Y42.545
X5.08Y40.005
X5.08Y37.465
X25.4Y85.725
X25.4Y83.185
X25.4Y80.645
X25.4Y78.105
X25.4Y75.565
X25.4Y73.025
X25.4Y70.485
X25.4Y67.945
X25.4Y65.405
X25.4Y62.865
X25.4Y60.325
X25.4Y57.785
X25.4Y55.245
X25.4Y52.705
X25.4Y50.165
X25.4Y47.625
X25.4Y45.085
X25.4Y42.545
X25.4Y40.005
X25.4Y37.465
M30
