G04 #@! TF.GenerationSoftware,KiCad,Pcbnew,8.0.2*
G04 #@! TF.CreationDate,2024-05-19T23:46:18+09:00*
G04 #@! TF.ProjectId,MEZi486,4d455a69-3438-4362-9e6b-696361645f70,C*
G04 #@! TF.SameCoordinates,PX5f5e100PY8f0d180*
G04 #@! TF.FileFunction,Soldermask,Top*
G04 #@! TF.FilePolarity,Negative*
%FSLAX46Y46*%
G04 Gerber Fmt 4.6, Leading zero omitted, Abs format (unit mm)*
G04 Created by KiCad (PCBNEW 8.0.2) date 2024-05-19 23:46:18*
%MOMM*%
%LPD*%
G01*
G04 APERTURE LIST*
%ADD10R,1.600000X1.600000*%
%ADD11O,1.600000X1.600000*%
%ADD12C,1.600000*%
%ADD13R,1.700000X1.700000*%
%ADD14O,1.700000X1.700000*%
%ADD15R,1.397000X1.397000*%
%ADD16C,1.397000*%
%ADD17C,0.605000*%
G04 APERTURE END LIST*
D10*
X59690000Y40005000D03*
D11*
X57150000Y40005000D03*
X54610000Y40005000D03*
X52070000Y40005000D03*
X49530000Y40005000D03*
D12*
X81310000Y31760000D03*
X78810000Y31760000D03*
D10*
X39380000Y28570000D03*
D11*
X39380000Y26030000D03*
X39380000Y23490000D03*
X39380000Y20950000D03*
X39380000Y18410000D03*
X39380000Y15870000D03*
X39380000Y13330000D03*
X39380000Y10790000D03*
X39380000Y8250000D03*
X39380000Y5710000D03*
X47000000Y5710000D03*
X47000000Y8250000D03*
X47000000Y10790000D03*
X47000000Y13330000D03*
X47000000Y15870000D03*
X47000000Y18410000D03*
X47000000Y20950000D03*
X47000000Y23490000D03*
X47000000Y26030000D03*
X47000000Y28570000D03*
D10*
X73690000Y28585000D03*
D11*
X73690000Y26045000D03*
X73690000Y23505000D03*
X73690000Y20965000D03*
X73690000Y18425000D03*
X73690000Y15885000D03*
X73690000Y13345000D03*
X81310000Y13345000D03*
X81310000Y15885000D03*
X81310000Y18425000D03*
X81310000Y20965000D03*
X81310000Y23505000D03*
X81310000Y26045000D03*
X81310000Y28585000D03*
D10*
X27950000Y28570000D03*
D11*
X27950000Y26030000D03*
X27950000Y23490000D03*
X27950000Y20950000D03*
X27950000Y18410000D03*
X27950000Y15870000D03*
X27950000Y13330000D03*
X27950000Y10790000D03*
X27950000Y8250000D03*
X27950000Y5710000D03*
X35570000Y5710000D03*
X35570000Y8250000D03*
X35570000Y10790000D03*
X35570000Y13330000D03*
X35570000Y15870000D03*
X35570000Y18410000D03*
X35570000Y20950000D03*
X35570000Y23490000D03*
X35570000Y26030000D03*
X35570000Y28570000D03*
D10*
X16520000Y28570000D03*
D11*
X16520000Y26030000D03*
X16520000Y23490000D03*
X16520000Y20950000D03*
X16520000Y18410000D03*
X16520000Y15870000D03*
X16520000Y13330000D03*
X16520000Y10790000D03*
X16520000Y8250000D03*
X16520000Y5710000D03*
X24140000Y5710000D03*
X24140000Y8250000D03*
X24140000Y10790000D03*
X24140000Y13330000D03*
X24140000Y15870000D03*
X24140000Y18410000D03*
X24140000Y20950000D03*
X24140000Y23490000D03*
X24140000Y26030000D03*
X24140000Y28570000D03*
D12*
X35540000Y31750000D03*
X33040000Y31750000D03*
X46970000Y31750000D03*
X44470000Y31750000D03*
X12680000Y31750000D03*
X10180000Y31750000D03*
D10*
X50800000Y28575000D03*
D11*
X50800000Y26035000D03*
X50800000Y23495000D03*
X50800000Y20955000D03*
X50800000Y18415000D03*
X50800000Y15875000D03*
X50800000Y13335000D03*
X50800000Y10795000D03*
X58420000Y10795000D03*
X58420000Y13335000D03*
X58420000Y15875000D03*
X58420000Y18415000D03*
X58420000Y20955000D03*
X58420000Y23495000D03*
X58420000Y26035000D03*
X58420000Y28575000D03*
D12*
X24130000Y31750000D03*
X21630000Y31750000D03*
D10*
X5090000Y28570000D03*
D11*
X5090000Y26030000D03*
X5090000Y23490000D03*
X5090000Y20950000D03*
X5090000Y18410000D03*
X5090000Y15870000D03*
X5090000Y13330000D03*
X5090000Y10790000D03*
X5090000Y8250000D03*
X5090000Y5710000D03*
X12710000Y5710000D03*
X12710000Y8250000D03*
X12710000Y10790000D03*
X12710000Y13330000D03*
X12710000Y15870000D03*
X12710000Y18410000D03*
X12710000Y20950000D03*
X12710000Y23490000D03*
X12710000Y26030000D03*
X12710000Y28570000D03*
D12*
X58420000Y31750000D03*
X55920000Y31750000D03*
X69860000Y31755000D03*
X67360000Y31755000D03*
D13*
X25400000Y85725000D03*
D14*
X25400000Y83185000D03*
X25400000Y80645000D03*
X25400000Y78105000D03*
X25400000Y75565000D03*
X25400000Y73025000D03*
X25400000Y70485000D03*
X25400000Y67945000D03*
X25400000Y65405000D03*
X25400000Y62865000D03*
X25400000Y60325000D03*
X25400000Y57785000D03*
X25400000Y55245000D03*
X25400000Y52705000D03*
X25400000Y50165000D03*
X25400000Y47625000D03*
X25400000Y45085000D03*
X25400000Y42545000D03*
X25400000Y40005000D03*
X25400000Y37465000D03*
D12*
X42545000Y64115000D03*
X42545000Y61615000D03*
X66040000Y61615000D03*
X66040000Y64115000D03*
D13*
X5080000Y85725000D03*
D14*
X5080000Y83185000D03*
X5080000Y80645000D03*
X5080000Y78105000D03*
X5080000Y75565000D03*
X5080000Y73025000D03*
X5080000Y70485000D03*
X5080000Y67945000D03*
X5080000Y65405000D03*
X5080000Y62865000D03*
X5080000Y60325000D03*
X5080000Y57785000D03*
X5080000Y55245000D03*
X5080000Y52705000D03*
X5080000Y50165000D03*
X5080000Y47625000D03*
X5080000Y45085000D03*
X5080000Y42545000D03*
X5080000Y40005000D03*
X5080000Y37465000D03*
D10*
X81320000Y64222600D03*
D12*
X81320000Y66722600D03*
D10*
X62240000Y28580000D03*
D11*
X62240000Y26040000D03*
X62240000Y23500000D03*
X62240000Y20960000D03*
X62240000Y18420000D03*
X62240000Y15880000D03*
X62240000Y13340000D03*
X69860000Y13340000D03*
X69860000Y15880000D03*
X69860000Y18420000D03*
X69860000Y20960000D03*
X69860000Y23500000D03*
X69860000Y26040000D03*
X69860000Y28580000D03*
D15*
X34290000Y45085000D03*
D16*
X34290000Y47625000D03*
X34290000Y50165000D03*
X34290000Y52705000D03*
X34290000Y55245000D03*
X34290000Y57785000D03*
X34290000Y60325000D03*
X34290000Y62865000D03*
X34290000Y65405000D03*
X34290000Y67945000D03*
X34290000Y70485000D03*
X34290000Y73025000D03*
X34290000Y75565000D03*
X34290000Y78105000D03*
X34290000Y80645000D03*
X34290000Y83185000D03*
X34290000Y85725000D03*
X36830000Y45085000D03*
X36830000Y47625000D03*
X36830000Y50165000D03*
X36830000Y52705000D03*
X36830000Y55245000D03*
X36830000Y57785000D03*
X36830000Y60325000D03*
X36830000Y62865000D03*
X36830000Y65405000D03*
X36830000Y67945000D03*
X36830000Y70485000D03*
X36830000Y73025000D03*
X36830000Y75565000D03*
X36830000Y78105000D03*
X36830000Y80645000D03*
X36830000Y83185000D03*
X36830000Y85725000D03*
X39370000Y45085000D03*
X39370000Y47625000D03*
X39370000Y50165000D03*
X39370000Y52705000D03*
X39370000Y55245000D03*
X39370000Y57785000D03*
X39370000Y60325000D03*
X39370000Y62865000D03*
X39370000Y65405000D03*
X39370000Y67945000D03*
X39370000Y70485000D03*
X39370000Y73025000D03*
X39370000Y75565000D03*
X39370000Y78105000D03*
X39370000Y80645000D03*
X39370000Y83185000D03*
X39370000Y85725000D03*
X41910000Y45085000D03*
X41910000Y47625000D03*
X41910000Y50165000D03*
X41910000Y80645000D03*
X41910000Y83185000D03*
X41910000Y85725000D03*
X44450000Y45085000D03*
X44450000Y47625000D03*
X44450000Y50165000D03*
X44450000Y80645000D03*
X44450000Y83185000D03*
X44450000Y85725000D03*
X46990000Y45085000D03*
X46990000Y47625000D03*
X46990000Y50165000D03*
X46990000Y80645000D03*
X46990000Y83185000D03*
X46990000Y85725000D03*
X49530000Y45085000D03*
X49530000Y47625000D03*
X49530000Y50165000D03*
X49530000Y80645000D03*
X49530000Y83185000D03*
X49530000Y85725000D03*
X52070000Y45085000D03*
X52070000Y47625000D03*
X52070000Y50165000D03*
X52070000Y80645000D03*
X52070000Y83185000D03*
X52070000Y85725000D03*
X54610000Y45085000D03*
X54610000Y47625000D03*
X54610000Y50165000D03*
X54610000Y80645000D03*
X54610000Y83185000D03*
X54610000Y85725000D03*
X57150000Y45085000D03*
X57150000Y47625000D03*
X57150000Y50165000D03*
X57150000Y80645000D03*
X57150000Y83185000D03*
X57150000Y85725000D03*
X59690000Y45085000D03*
X59690000Y47625000D03*
X59690000Y50165000D03*
X59690000Y80645000D03*
X59690000Y83185000D03*
X59690000Y85725000D03*
X62230000Y45085000D03*
X62230000Y47625000D03*
X62230000Y50165000D03*
X62230000Y80645000D03*
X62230000Y83185000D03*
X62230000Y85725000D03*
X64770000Y45085000D03*
X64770000Y47625000D03*
X64770000Y50165000D03*
X64770000Y80645000D03*
X64770000Y83185000D03*
X64770000Y85725000D03*
X67310000Y45085000D03*
X67310000Y47625000D03*
X67310000Y50165000D03*
X67310000Y80645000D03*
X67310000Y83185000D03*
X67310000Y85725000D03*
X69850000Y45085000D03*
X69850000Y47625000D03*
X69850000Y50165000D03*
X69850000Y52705000D03*
X69850000Y55245000D03*
X69850000Y57785000D03*
X69850000Y60325000D03*
X69850000Y62865000D03*
X69850000Y65405000D03*
X69850000Y67945000D03*
X69850000Y70485000D03*
X69850000Y73025000D03*
X69850000Y75565000D03*
X69850000Y78105000D03*
X69850000Y80645000D03*
X69850000Y83185000D03*
X69850000Y85725000D03*
X72390000Y45085000D03*
X72390000Y47625000D03*
X72390000Y50165000D03*
X72390000Y52705000D03*
X72390000Y55245000D03*
X72390000Y57785000D03*
X72390000Y60325000D03*
X72390000Y62865000D03*
X72390000Y65405000D03*
X72390000Y67945000D03*
X72390000Y70485000D03*
X72390000Y73025000D03*
X72390000Y75565000D03*
X72390000Y78105000D03*
X72390000Y80645000D03*
X72390000Y83185000D03*
X72390000Y85725000D03*
X74930000Y45085000D03*
X74930000Y47625000D03*
X74930000Y50165000D03*
X74930000Y52705000D03*
X74930000Y55245000D03*
X74930000Y57785000D03*
X74930000Y60325000D03*
X74930000Y62865000D03*
X74930000Y65405000D03*
X74930000Y67945000D03*
X74930000Y70485000D03*
X74930000Y73025000D03*
X74930000Y75565000D03*
X74930000Y78105000D03*
X74930000Y80645000D03*
X74930000Y83185000D03*
X74930000Y85725000D03*
D17*
X78740000Y65405000D03*
X78740000Y62865000D03*
X71120000Y66675000D03*
X71120000Y64135000D03*
X71120000Y59055000D03*
X20955000Y55245000D03*
X20955000Y56515000D03*
X73660000Y46355000D03*
X23495000Y66675000D03*
X7620000Y47625000D03*
X8255000Y40005000D03*
X7620000Y51435000D03*
X5080000Y34290000D03*
X37465000Y9525000D03*
X26035000Y9525000D03*
X14605000Y9525000D03*
X71755000Y24765000D03*
X83185000Y60325000D03*
X79375000Y60325000D03*
X38735000Y34036000D03*
X38735000Y40005000D03*
X44450000Y40005000D03*
X23495000Y76835000D03*
X29210000Y56515000D03*
X31115000Y50165000D03*
X29210000Y52070000D03*
X31115000Y53975000D03*
X26670000Y53975000D03*
X26670000Y56515000D03*
X44450000Y28575000D03*
X27940000Y65405000D03*
X27940000Y67945000D03*
X27940000Y40005000D03*
X23495000Y38735000D03*
X23495000Y45085000D03*
X14605000Y33655000D03*
X42545000Y70485000D03*
X66040000Y70485000D03*
X59690000Y52705000D03*
X59690000Y60325000D03*
X59690000Y70485000D03*
X59690000Y76835000D03*
X49530000Y76835000D03*
X49530000Y70485000D03*
X49530000Y60325000D03*
X49530000Y52705000D03*
X44450000Y52705000D03*
X42545000Y54610000D03*
X66040000Y52705000D03*
X71120000Y74295000D03*
X67945000Y76835000D03*
X66040000Y74295000D03*
X63500000Y76835000D03*
X42545000Y76835000D03*
X1905000Y88900000D03*
X85090000Y88900000D03*
X85090000Y1905000D03*
X77470000Y24765000D03*
X77470000Y14605000D03*
X66040000Y19685000D03*
X66040000Y26035000D03*
X66040000Y14605000D03*
X54610000Y14605000D03*
X54610000Y23495000D03*
X43180000Y9525000D03*
X43180000Y14605000D03*
X43180000Y19685000D03*
X43180000Y23495000D03*
X43180000Y26035000D03*
X31750000Y28575000D03*
X31750000Y26035000D03*
X31750000Y23495000D03*
X31750000Y19685000D03*
X31750000Y14605000D03*
X31750000Y9525000D03*
X1905000Y1905000D03*
X20320000Y9525000D03*
X8890000Y9525000D03*
X19050000Y28575000D03*
X20320000Y24765000D03*
X20320000Y19685000D03*
X20320000Y14605000D03*
X8890000Y14605000D03*
X8890000Y19685000D03*
X8890000Y24765000D03*
X8255000Y37465000D03*
X7620000Y43815000D03*
X7620000Y56515000D03*
X7620000Y62230000D03*
X23495000Y83185000D03*
X6985000Y78105000D03*
X6985000Y85725000D03*
X23495000Y85725000D03*
X31750000Y85725000D03*
X27940000Y75565000D03*
X27940000Y80645000D03*
X27940000Y83185000D03*
X68707000Y53975000D03*
X67968100Y52578000D03*
X67437000Y53467000D03*
X31877000Y83185000D03*
X28448000Y86730600D03*
X48675432Y34012479D03*
X49432439Y34036951D03*
X32639000Y48895000D03*
M02*
