G04 #@! TF.GenerationSoftware,KiCad,Pcbnew,8.0.2*
G04 #@! TF.CreationDate,2024-05-19T23:46:18+09:00*
G04 #@! TF.ProjectId,MEZi486,4d455a69-3438-4362-9e6b-696361645f70,C*
G04 #@! TF.SameCoordinates,PX5f5e100PY8f0d180*
G04 #@! TF.FileFunction,Legend,Top*
G04 #@! TF.FilePolarity,Positive*
%FSLAX46Y46*%
G04 Gerber Fmt 4.6, Leading zero omitted, Abs format (unit mm)*
G04 Created by KiCad (PCBNEW 8.0.2) date 2024-05-19 23:46:18*
%MOMM*%
%LPD*%
G01*
G04 APERTURE LIST*
%ADD10C,0.150000*%
%ADD11C,0.613815*%
%ADD12C,0.250000*%
%ADD13C,0.203200*%
%ADD14C,0.120000*%
%ADD15C,0.304800*%
%ADD16R,1.397000X1.397000*%
%ADD17C,1.397000*%
G04 APERTURE END LIST*
D10*
X50419000Y3937000D02*
X50419000Y3175000D01*
D11*
X32691907Y43180000D02*
G75*
G02*
X32078093Y43180000I-306907J0D01*
G01*
X32078093Y43180000D02*
G75*
G02*
X32691907Y43180000I306907J0D01*
G01*
D10*
X46101000Y65151000D02*
X63119000Y65151000D01*
X63119000Y62611000D01*
X46101000Y62611000D01*
X46101000Y65151000D01*
X50419000Y3937000D02*
X49530000Y3175000D01*
X54610000Y3175000D02*
X49530000Y3175000D01*
X54610000Y4445000D02*
X54610000Y3175000D01*
X65897856Y7450896D02*
X66374046Y7450896D01*
X65802618Y7165181D02*
X66135951Y8165181D01*
X66135951Y8165181D02*
X66469284Y7165181D01*
X67326427Y7165181D02*
X66754999Y7165181D01*
X67040713Y7165181D02*
X67040713Y8165181D01*
X67040713Y8165181D02*
X66945475Y8022324D01*
X66945475Y8022324D02*
X66850237Y7927086D01*
X66850237Y7927086D02*
X66754999Y7879467D01*
X67802618Y7212800D02*
X67802618Y7165181D01*
X67802618Y7165181D02*
X67754999Y7069943D01*
X67754999Y7069943D02*
X67707380Y7022324D01*
X68183570Y7450896D02*
X68659760Y7450896D01*
X68088332Y7165181D02*
X68421665Y8165181D01*
X68421665Y8165181D02*
X68754998Y7165181D01*
X69278808Y8165181D02*
X69374046Y8165181D01*
X69374046Y8165181D02*
X69469284Y8117562D01*
X69469284Y8117562D02*
X69516903Y8069943D01*
X69516903Y8069943D02*
X69564522Y7974705D01*
X69564522Y7974705D02*
X69612141Y7784229D01*
X69612141Y7784229D02*
X69612141Y7546134D01*
X69612141Y7546134D02*
X69564522Y7355658D01*
X69564522Y7355658D02*
X69516903Y7260420D01*
X69516903Y7260420D02*
X69469284Y7212800D01*
X69469284Y7212800D02*
X69374046Y7165181D01*
X69374046Y7165181D02*
X69278808Y7165181D01*
X69278808Y7165181D02*
X69183570Y7212800D01*
X69183570Y7212800D02*
X69135951Y7260420D01*
X69135951Y7260420D02*
X69088332Y7355658D01*
X69088332Y7355658D02*
X69040713Y7546134D01*
X69040713Y7546134D02*
X69040713Y7784229D01*
X69040713Y7784229D02*
X69088332Y7974705D01*
X69088332Y7974705D02*
X69135951Y8069943D01*
X69135951Y8069943D02*
X69183570Y8117562D01*
X69183570Y8117562D02*
X69278808Y8165181D01*
X71326427Y8117562D02*
X71231189Y8165181D01*
X71231189Y8165181D02*
X71088332Y8165181D01*
X71088332Y8165181D02*
X70945475Y8117562D01*
X70945475Y8117562D02*
X70850237Y8022324D01*
X70850237Y8022324D02*
X70802618Y7927086D01*
X70802618Y7927086D02*
X70754999Y7736610D01*
X70754999Y7736610D02*
X70754999Y7593753D01*
X70754999Y7593753D02*
X70802618Y7403277D01*
X70802618Y7403277D02*
X70850237Y7308039D01*
X70850237Y7308039D02*
X70945475Y7212800D01*
X70945475Y7212800D02*
X71088332Y7165181D01*
X71088332Y7165181D02*
X71183570Y7165181D01*
X71183570Y7165181D02*
X71326427Y7212800D01*
X71326427Y7212800D02*
X71374046Y7260420D01*
X71374046Y7260420D02*
X71374046Y7593753D01*
X71374046Y7593753D02*
X71183570Y7593753D01*
X72183570Y7212800D02*
X72088332Y7165181D01*
X72088332Y7165181D02*
X71897856Y7165181D01*
X71897856Y7165181D02*
X71802618Y7212800D01*
X71802618Y7212800D02*
X71754999Y7308039D01*
X71754999Y7308039D02*
X71754999Y7688991D01*
X71754999Y7688991D02*
X71802618Y7784229D01*
X71802618Y7784229D02*
X71897856Y7831848D01*
X71897856Y7831848D02*
X72088332Y7831848D01*
X72088332Y7831848D02*
X72183570Y7784229D01*
X72183570Y7784229D02*
X72231189Y7688991D01*
X72231189Y7688991D02*
X72231189Y7593753D01*
X72231189Y7593753D02*
X71754999Y7498515D01*
X72659761Y7831848D02*
X72659761Y7165181D01*
X72659761Y7736610D02*
X72707380Y7784229D01*
X72707380Y7784229D02*
X72802618Y7831848D01*
X72802618Y7831848D02*
X72945475Y7831848D01*
X72945475Y7831848D02*
X73040713Y7784229D01*
X73040713Y7784229D02*
X73088332Y7688991D01*
X73088332Y7688991D02*
X73088332Y7165181D01*
X73945475Y7212800D02*
X73850237Y7165181D01*
X73850237Y7165181D02*
X73659761Y7165181D01*
X73659761Y7165181D02*
X73564523Y7212800D01*
X73564523Y7212800D02*
X73516904Y7308039D01*
X73516904Y7308039D02*
X73516904Y7688991D01*
X73516904Y7688991D02*
X73564523Y7784229D01*
X73564523Y7784229D02*
X73659761Y7831848D01*
X73659761Y7831848D02*
X73850237Y7831848D01*
X73850237Y7831848D02*
X73945475Y7784229D01*
X73945475Y7784229D02*
X73993094Y7688991D01*
X73993094Y7688991D02*
X73993094Y7593753D01*
X73993094Y7593753D02*
X73516904Y7498515D01*
X74421666Y7165181D02*
X74421666Y7831848D01*
X74421666Y7641372D02*
X74469285Y7736610D01*
X74469285Y7736610D02*
X74516904Y7784229D01*
X74516904Y7784229D02*
X74612142Y7831848D01*
X74612142Y7831848D02*
X74707380Y7831848D01*
X75469285Y7165181D02*
X75469285Y7688991D01*
X75469285Y7688991D02*
X75421666Y7784229D01*
X75421666Y7784229D02*
X75326428Y7831848D01*
X75326428Y7831848D02*
X75135952Y7831848D01*
X75135952Y7831848D02*
X75040714Y7784229D01*
X75469285Y7212800D02*
X75374047Y7165181D01*
X75374047Y7165181D02*
X75135952Y7165181D01*
X75135952Y7165181D02*
X75040714Y7212800D01*
X75040714Y7212800D02*
X74993095Y7308039D01*
X74993095Y7308039D02*
X74993095Y7403277D01*
X74993095Y7403277D02*
X75040714Y7498515D01*
X75040714Y7498515D02*
X75135952Y7546134D01*
X75135952Y7546134D02*
X75374047Y7546134D01*
X75374047Y7546134D02*
X75469285Y7593753D01*
X75802619Y7831848D02*
X76183571Y7831848D01*
X75945476Y8165181D02*
X75945476Y7308039D01*
X75945476Y7308039D02*
X75993095Y7212800D01*
X75993095Y7212800D02*
X76088333Y7165181D01*
X76088333Y7165181D02*
X76183571Y7165181D01*
X76659762Y7165181D02*
X76564524Y7212800D01*
X76564524Y7212800D02*
X76516905Y7260420D01*
X76516905Y7260420D02*
X76469286Y7355658D01*
X76469286Y7355658D02*
X76469286Y7641372D01*
X76469286Y7641372D02*
X76516905Y7736610D01*
X76516905Y7736610D02*
X76564524Y7784229D01*
X76564524Y7784229D02*
X76659762Y7831848D01*
X76659762Y7831848D02*
X76802619Y7831848D01*
X76802619Y7831848D02*
X76897857Y7784229D01*
X76897857Y7784229D02*
X76945476Y7736610D01*
X76945476Y7736610D02*
X76993095Y7641372D01*
X76993095Y7641372D02*
X76993095Y7355658D01*
X76993095Y7355658D02*
X76945476Y7260420D01*
X76945476Y7260420D02*
X76897857Y7212800D01*
X76897857Y7212800D02*
X76802619Y7165181D01*
X76802619Y7165181D02*
X76659762Y7165181D01*
X77421667Y7165181D02*
X77421667Y7831848D01*
X77421667Y7641372D02*
X77469286Y7736610D01*
X77469286Y7736610D02*
X77516905Y7784229D01*
X77516905Y7784229D02*
X77612143Y7831848D01*
X77612143Y7831848D02*
X77707381Y7831848D01*
X5604286Y2720181D02*
X5604286Y3720181D01*
X5604286Y3720181D02*
X5842381Y3720181D01*
X5842381Y3720181D02*
X5985238Y3672562D01*
X5985238Y3672562D02*
X6080476Y3577324D01*
X6080476Y3577324D02*
X6128095Y3482086D01*
X6128095Y3482086D02*
X6175714Y3291610D01*
X6175714Y3291610D02*
X6175714Y3148753D01*
X6175714Y3148753D02*
X6128095Y2958277D01*
X6128095Y2958277D02*
X6080476Y2863039D01*
X6080476Y2863039D02*
X5985238Y2767800D01*
X5985238Y2767800D02*
X5842381Y2720181D01*
X5842381Y2720181D02*
X5604286Y2720181D01*
X6509048Y3720181D02*
X7128095Y3720181D01*
X7128095Y3720181D02*
X6794762Y3339229D01*
X6794762Y3339229D02*
X6937619Y3339229D01*
X6937619Y3339229D02*
X7032857Y3291610D01*
X7032857Y3291610D02*
X7080476Y3243991D01*
X7080476Y3243991D02*
X7128095Y3148753D01*
X7128095Y3148753D02*
X7128095Y2910658D01*
X7128095Y2910658D02*
X7080476Y2815420D01*
X7080476Y2815420D02*
X7032857Y2767800D01*
X7032857Y2767800D02*
X6937619Y2720181D01*
X6937619Y2720181D02*
X6651905Y2720181D01*
X6651905Y2720181D02*
X6556667Y2767800D01*
X6556667Y2767800D02*
X6509048Y2815420D01*
X8080476Y2720181D02*
X7509048Y2720181D01*
X7794762Y2720181D02*
X7794762Y3720181D01*
X7794762Y3720181D02*
X7699524Y3577324D01*
X7699524Y3577324D02*
X7604286Y3482086D01*
X7604286Y3482086D02*
X7509048Y3434467D01*
X8509048Y3101134D02*
X9270953Y3101134D01*
X9747143Y2720181D02*
X9747143Y3720181D01*
X9747143Y3720181D02*
X9985238Y3720181D01*
X9985238Y3720181D02*
X10128095Y3672562D01*
X10128095Y3672562D02*
X10223333Y3577324D01*
X10223333Y3577324D02*
X10270952Y3482086D01*
X10270952Y3482086D02*
X10318571Y3291610D01*
X10318571Y3291610D02*
X10318571Y3148753D01*
X10318571Y3148753D02*
X10270952Y2958277D01*
X10270952Y2958277D02*
X10223333Y2863039D01*
X10223333Y2863039D02*
X10128095Y2767800D01*
X10128095Y2767800D02*
X9985238Y2720181D01*
X9985238Y2720181D02*
X9747143Y2720181D01*
X10699524Y3624943D02*
X10747143Y3672562D01*
X10747143Y3672562D02*
X10842381Y3720181D01*
X10842381Y3720181D02*
X11080476Y3720181D01*
X11080476Y3720181D02*
X11175714Y3672562D01*
X11175714Y3672562D02*
X11223333Y3624943D01*
X11223333Y3624943D02*
X11270952Y3529705D01*
X11270952Y3529705D02*
X11270952Y3434467D01*
X11270952Y3434467D02*
X11223333Y3291610D01*
X11223333Y3291610D02*
X10651905Y2720181D01*
X10651905Y2720181D02*
X11270952Y2720181D01*
X12128095Y3386848D02*
X12128095Y2720181D01*
X11890000Y3767800D02*
X11651905Y3053515D01*
X11651905Y3053515D02*
X12270952Y3053515D01*
D12*
G36*
X12069270Y64599913D02*
G01*
X12047288Y64575000D01*
X11323353Y64575000D01*
X11298928Y64596982D01*
X11298928Y64641435D01*
X11348265Y64668790D01*
X11446079Y64676083D01*
X11522655Y64706892D01*
X11561424Y64800037D01*
X11566619Y64882746D01*
X11514839Y65950576D01*
X10957477Y64624338D01*
X10924748Y64575000D01*
X10861734Y64575000D01*
X10845614Y64591609D01*
X10831936Y64621895D01*
X10263827Y65950576D01*
X10209117Y64886166D01*
X10214921Y64785714D01*
X10244288Y64704449D01*
X10340916Y64671018D01*
X10392299Y64668790D01*
X10444078Y64638504D01*
X10444078Y64599913D01*
X10416723Y64575000D01*
X9818328Y64575000D01*
X9793904Y64596982D01*
X9793904Y64643877D01*
X9832006Y64668790D01*
X9931973Y64674580D01*
X9988810Y64689306D01*
X10048282Y64770222D01*
X10051824Y64783584D01*
X10066937Y64889875D01*
X10077529Y64998956D01*
X10085896Y65098108D01*
X10094931Y65214958D01*
X10100673Y65293563D01*
X10108115Y65398023D01*
X10116022Y65515674D01*
X10122378Y65618967D01*
X10127959Y65723965D01*
X10131928Y65831798D01*
X10132425Y65871930D01*
X10127959Y65972451D01*
X10100673Y66067324D01*
X10007028Y66103762D01*
X9943869Y66106892D01*
X9911141Y66135224D01*
X9911141Y66178699D01*
X9946800Y66200681D01*
X10389368Y66200681D01*
X10438705Y66150855D01*
X10475726Y66045866D01*
X10511012Y65952947D01*
X10546897Y65861504D01*
X10588674Y65757324D01*
X10626337Y65664809D01*
X10657058Y65590074D01*
X10700917Y65485543D01*
X10741818Y65388717D01*
X10786995Y65282694D01*
X10827914Y65187766D01*
X10870269Y65091037D01*
X10886646Y65054205D01*
X10946730Y64918406D01*
X11438147Y66083933D01*
X11480234Y66175752D01*
X11482111Y66179188D01*
X11489926Y66200681D01*
X11971085Y66200681D01*
X11990136Y66179676D01*
X11990136Y66124966D01*
X11927121Y66106892D01*
X11828313Y66099447D01*
X11779598Y66080513D01*
X11748915Y65986999D01*
X11746870Y65931525D01*
X11801580Y64961881D01*
X11804710Y64861593D01*
X11820282Y64759436D01*
X11841148Y64715196D01*
X11936975Y64675316D01*
X12038984Y64668790D01*
X12069270Y64646808D01*
X12069270Y64599913D01*
G37*
G36*
X13479040Y64594540D02*
G01*
X13457058Y64575000D01*
X12203604Y64575000D01*
X12181622Y64596982D01*
X12181622Y64649250D01*
X12208977Y64668790D01*
X12311605Y64676071D01*
X12401441Y64720569D01*
X12423880Y64821305D01*
X12430750Y64931412D01*
X12432673Y65042803D01*
X12432704Y65060555D01*
X12432704Y65854833D01*
X12427346Y65958102D01*
X12399216Y66053757D01*
X12394602Y66059997D01*
X12302098Y66101350D01*
X12219724Y66106892D01*
X12181622Y66124966D01*
X12181622Y66182607D01*
X12208977Y66200681D01*
X13410652Y66200681D01*
X13438007Y66176257D01*
X13438007Y65886585D01*
X13432634Y65865091D01*
X13427261Y65856787D01*
X13372550Y65856787D01*
X13353499Y65885119D01*
X13353499Y65932502D01*
X13340715Y66030047D01*
X13320771Y66067324D01*
X13229836Y66106273D01*
X13211350Y66106892D01*
X12673039Y66106892D01*
X12671776Y66004881D01*
X12670108Y65954973D01*
X12666344Y65855425D01*
X12664734Y65817708D01*
X12664734Y65450367D01*
X13071643Y65450367D01*
X13174010Y65458310D01*
X13239682Y65486515D01*
X13273181Y65580066D01*
X13276807Y65651134D01*
X13279738Y65691679D01*
X13301231Y65700472D01*
X13345195Y65700472D01*
X13367177Y65670674D01*
X13367177Y65159718D01*
X13348126Y65137736D01*
X13296346Y65137736D01*
X13279738Y65164114D01*
X13270087Y65265201D01*
X13245544Y65317987D01*
X13153586Y65354166D01*
X13104860Y65356578D01*
X12664734Y65356578D01*
X12664734Y65002914D01*
X12673039Y64668790D01*
X13022794Y64668790D01*
X13126719Y64670823D01*
X13231622Y64679414D01*
X13330598Y64706142D01*
X13338356Y64711288D01*
X13383780Y64805862D01*
X13394038Y64909157D01*
X13394532Y64943319D01*
X13410652Y64981421D01*
X13462920Y64981421D01*
X13479040Y64958950D01*
X13479040Y64594540D01*
G37*
G36*
X14836542Y66120569D02*
G01*
X14822864Y66084910D01*
X13926493Y64700053D01*
X14232285Y64700053D01*
X14332446Y64700427D01*
X14439037Y64702007D01*
X14542328Y64706037D01*
X14566898Y64707869D01*
X14664415Y64730657D01*
X14686088Y64745482D01*
X14722388Y64839962D01*
X14729563Y64925245D01*
X14734937Y64965301D01*
X14740310Y64981421D01*
X14808698Y64981421D01*
X14825307Y64919383D01*
X14825307Y64607241D01*
X14792578Y64575000D01*
X13634378Y64575000D01*
X13617770Y64583305D01*
X13612397Y64588678D01*
X13612397Y64668790D01*
X13762850Y64883235D01*
X13823644Y64973521D01*
X13881651Y65060349D01*
X13943879Y65153805D01*
X13994881Y65230548D01*
X14052081Y65317364D01*
X14106234Y65400048D01*
X14163502Y65487922D01*
X14216165Y65569069D01*
X14269597Y65652262D01*
X14324381Y65737817D01*
X14377030Y65820425D01*
X14432076Y65907589D01*
X14533192Y66075629D01*
X13994881Y66075629D01*
X13893930Y66065647D01*
X13820003Y66030199D01*
X13776927Y65939028D01*
X13771154Y65865580D01*
X13746730Y65825524D01*
X13697393Y65833828D01*
X13689089Y65882188D01*
X13689089Y66160137D01*
X13692020Y66189934D01*
X13735495Y66200681D01*
X14790136Y66200681D01*
X14836542Y66187003D01*
X14836542Y66120569D01*
G37*
G36*
X15579040Y64603333D02*
G01*
X15543381Y64575000D01*
X14986507Y64575000D01*
X14953778Y64602356D01*
X14953778Y64647785D01*
X14989438Y64668790D01*
X15087848Y64680704D01*
X15147219Y64723012D01*
X15169933Y64824617D01*
X15176056Y64923415D01*
X15177505Y65020988D01*
X15177505Y65400053D01*
X15174361Y65504033D01*
X15158454Y65580304D01*
X15062318Y65606038D01*
X15030471Y65606682D01*
X14975760Y65638922D01*
X14975760Y65684352D01*
X15025097Y65700472D01*
X15123140Y65706434D01*
X15161385Y65710241D01*
X15263858Y65721173D01*
X15360687Y65731735D01*
X15390973Y65710241D01*
X15390973Y65693633D01*
X15389256Y65594524D01*
X15386847Y65495605D01*
X15386577Y65485049D01*
X15384230Y65384061D01*
X15381665Y65278365D01*
X15379738Y65203193D01*
X15380546Y65099504D01*
X15382683Y64997228D01*
X15385749Y64898653D01*
X15386577Y64875908D01*
X15390470Y64771259D01*
X15393415Y64687841D01*
X15477923Y64675629D01*
X15546311Y64668790D01*
X15579040Y64650227D01*
X15579040Y64603333D01*
G37*
G36*
X15407093Y66121058D02*
G01*
X15371029Y66028064D01*
X15366060Y66022872D01*
X15274956Y65982000D01*
X15267875Y65981839D01*
X15174881Y66017903D01*
X15169689Y66022872D01*
X15128817Y66113977D01*
X15128656Y66121058D01*
X15163432Y66215397D01*
X15168224Y66220709D01*
X15256789Y66262834D01*
X15267875Y66263207D01*
X15360868Y66227143D01*
X15366060Y66222174D01*
X15406732Y66132156D01*
X15407093Y66121058D01*
G37*
G36*
X16631238Y66178699D02*
G01*
X16625865Y66082467D01*
X16625865Y65137736D01*
X16844218Y65137736D01*
X16882320Y65123570D01*
X16882320Y65026850D01*
X16857896Y65012684D01*
X16620492Y65012684D01*
X16620492Y64868092D01*
X16625409Y64768304D01*
X16650289Y64694679D01*
X16748500Y64671318D01*
X16830540Y64668790D01*
X16863269Y64645342D01*
X16863269Y64595517D01*
X16838845Y64575000D01*
X16169619Y64575000D01*
X16153011Y64598448D01*
X16153011Y64648273D01*
X16191113Y64668790D01*
X16289995Y64673224D01*
X16373318Y64695656D01*
X16410412Y64788988D01*
X16412885Y64843668D01*
X16412885Y65012684D01*
X15683087Y65012684D01*
X15658663Y65033200D01*
X15655888Y65137736D01*
X15797882Y65137736D01*
X16415328Y65137736D01*
X16415328Y66013102D01*
X15797882Y65137736D01*
X15655888Y65137736D01*
X15655732Y65143598D01*
X15674783Y65176326D01*
X15696765Y65203193D01*
X16330820Y66110311D01*
X16371364Y66174791D01*
X16404581Y66200681D01*
X16614630Y66200681D01*
X16631238Y66178699D01*
G37*
G36*
X17663810Y66224023D02*
G01*
X17765457Y66196641D01*
X17854224Y66149700D01*
X17878342Y66131804D01*
X17949817Y66056436D01*
X17991623Y65968022D01*
X18003883Y65876326D01*
X17990793Y65773544D01*
X17951523Y65684039D01*
X17935495Y65660904D01*
X17864209Y65588204D01*
X17779332Y65527822D01*
X17703464Y65484561D01*
X17790567Y65434827D01*
X17879268Y65378413D01*
X17961059Y65314630D01*
X17965781Y65310171D01*
X18031984Y65228226D01*
X18073668Y65136263D01*
X18090832Y65034282D01*
X18091322Y65012684D01*
X18081155Y64913887D01*
X18045413Y64814128D01*
X17983937Y64726423D01*
X17928656Y64674652D01*
X17841462Y64617377D01*
X17742055Y64576466D01*
X17645056Y64554093D01*
X17538707Y64544249D01*
X17506605Y64543737D01*
X17397153Y64551187D01*
X17297899Y64573535D01*
X17198427Y64616486D01*
X17129982Y64662928D01*
X17058670Y64735537D01*
X17006806Y64829265D01*
X16984764Y64925367D01*
X16982459Y64971651D01*
X16986297Y65002425D01*
X17197882Y65002425D01*
X17209310Y64897367D01*
X17247847Y64799743D01*
X17294602Y64738155D01*
X17376919Y64676835D01*
X17478059Y64643816D01*
X17555942Y64637527D01*
X17656577Y64649754D01*
X17752111Y64690597D01*
X17797742Y64724477D01*
X17862262Y64801890D01*
X17894960Y64899503D01*
X17897393Y64937945D01*
X17878586Y65039428D01*
X17822166Y65124058D01*
X17739197Y65191047D01*
X17656159Y65242902D01*
X17564767Y65292758D01*
X17539333Y65305775D01*
X17438217Y65356578D01*
X17344570Y65306572D01*
X17265711Y65230590D01*
X17216892Y65134518D01*
X17198820Y65033977D01*
X17197882Y65002425D01*
X16986297Y65002425D01*
X16995769Y65078383D01*
X17035697Y65175098D01*
X17094391Y65253575D01*
X17118747Y65277931D01*
X17197406Y65337811D01*
X17287303Y65389881D01*
X17340031Y65416173D01*
X17249058Y65479428D01*
X17176907Y65547560D01*
X17116520Y65633212D01*
X17081752Y65725503D01*
X17072341Y65809892D01*
X17080778Y65889516D01*
X17269201Y65889516D01*
X17289517Y65788977D01*
X17350465Y65703273D01*
X17392299Y65668720D01*
X17481600Y65612958D01*
X17572695Y65560773D01*
X17602348Y65544156D01*
X17690825Y65600515D01*
X17760145Y65679538D01*
X17797471Y65775099D01*
X17804581Y65847994D01*
X17789901Y65948947D01*
X17741594Y66039264D01*
X17727889Y66055112D01*
X17646788Y66114718D01*
X17546367Y66137830D01*
X17531517Y66138155D01*
X17434696Y66122699D01*
X17349165Y66072140D01*
X17344427Y66067813D01*
X17285730Y65982459D01*
X17269201Y65889516D01*
X17080778Y65889516D01*
X17083044Y65910906D01*
X17120043Y66009366D01*
X17183470Y66093325D01*
X17207651Y66115684D01*
X17290332Y66171884D01*
X17386151Y66209691D01*
X17482352Y66227857D01*
X17561315Y66231944D01*
X17663810Y66224023D01*
G37*
G36*
X19174112Y66227273D02*
G01*
X19199208Y66223640D01*
X19245614Y66199704D01*
X19231936Y66138155D01*
X19212885Y66130339D01*
X19106395Y66138155D01*
X18994306Y66128454D01*
X18892269Y66099353D01*
X18800282Y66050850D01*
X18718347Y65982946D01*
X18676039Y65935433D01*
X18620758Y65854341D01*
X18576915Y65762738D01*
X18544509Y65660626D01*
X18523540Y65548003D01*
X18514803Y65446122D01*
X18513374Y65381490D01*
X18586363Y65457054D01*
X18668983Y65514059D01*
X18761233Y65552504D01*
X18863114Y65572389D01*
X18925656Y65575419D01*
X19031624Y65565875D01*
X19134320Y65532883D01*
X19221179Y65476326D01*
X19244148Y65454763D01*
X19306745Y65371101D01*
X19346158Y65270932D01*
X19361807Y65166669D01*
X19362850Y65128943D01*
X19355581Y65019543D01*
X19333772Y64919585D01*
X19291045Y64816912D01*
X19229328Y64726572D01*
X19210931Y64705915D01*
X19129659Y64634962D01*
X19037275Y64584282D01*
X18933777Y64553873D01*
X18834100Y64543896D01*
X18819166Y64543737D01*
X18718203Y64552480D01*
X18613064Y64583880D01*
X18518855Y64638117D01*
X18445388Y64704308D01*
X18425935Y64726431D01*
X18366359Y64811622D01*
X18321416Y64906911D01*
X18291105Y65012298D01*
X18281439Y65078629D01*
X18537798Y65078629D01*
X18544367Y64974241D01*
X18567074Y64871850D01*
X18610785Y64775749D01*
X18620840Y64760137D01*
X18690976Y64685421D01*
X18783856Y64643394D01*
X18841148Y64637527D01*
X18941552Y64656507D01*
X19023070Y64713448D01*
X19042892Y64736689D01*
X19092547Y64829110D01*
X19114791Y64925825D01*
X19119584Y65006822D01*
X19114791Y65108976D01*
X19097940Y65208281D01*
X19060867Y65307195D01*
X19042892Y65337038D01*
X18969690Y65410414D01*
X18873914Y65446383D01*
X18822097Y65450367D01*
X18724361Y65434001D01*
X18639304Y65379772D01*
X18614002Y65351204D01*
X18564663Y65258381D01*
X18542561Y65160695D01*
X18537798Y65078629D01*
X18281439Y65078629D01*
X18276771Y65110667D01*
X18273039Y65198308D01*
X18276450Y65312186D01*
X18286686Y65420325D01*
X18303745Y65522724D01*
X18327627Y65619383D01*
X18367075Y65732135D01*
X18417186Y65835919D01*
X18477958Y65930735D01*
X18491392Y65948622D01*
X18563369Y66030243D01*
X18642527Y66098030D01*
X18728863Y66151983D01*
X18822379Y66192102D01*
X18923074Y66218387D01*
X19030949Y66230837D01*
X19076109Y66231944D01*
X19174112Y66227273D01*
G37*
D10*
X39095715Y36613624D02*
X39095715Y37413624D01*
X39095715Y37813624D02*
X39038572Y37756481D01*
X39038572Y37756481D02*
X39095715Y37699338D01*
X39095715Y37699338D02*
X39152858Y37756481D01*
X39152858Y37756481D02*
X39095715Y37813624D01*
X39095715Y37813624D02*
X39095715Y37699338D01*
X40181430Y37413624D02*
X40181430Y36613624D01*
X39895715Y37870766D02*
X39610001Y37013624D01*
X39610001Y37013624D02*
X40352858Y37013624D01*
X40981429Y37299338D02*
X40867144Y37356481D01*
X40867144Y37356481D02*
X40810001Y37413624D01*
X40810001Y37413624D02*
X40752858Y37527909D01*
X40752858Y37527909D02*
X40752858Y37585052D01*
X40752858Y37585052D02*
X40810001Y37699338D01*
X40810001Y37699338D02*
X40867144Y37756481D01*
X40867144Y37756481D02*
X40981429Y37813624D01*
X40981429Y37813624D02*
X41210001Y37813624D01*
X41210001Y37813624D02*
X41324287Y37756481D01*
X41324287Y37756481D02*
X41381429Y37699338D01*
X41381429Y37699338D02*
X41438572Y37585052D01*
X41438572Y37585052D02*
X41438572Y37527909D01*
X41438572Y37527909D02*
X41381429Y37413624D01*
X41381429Y37413624D02*
X41324287Y37356481D01*
X41324287Y37356481D02*
X41210001Y37299338D01*
X41210001Y37299338D02*
X40981429Y37299338D01*
X40981429Y37299338D02*
X40867144Y37242195D01*
X40867144Y37242195D02*
X40810001Y37185052D01*
X40810001Y37185052D02*
X40752858Y37070766D01*
X40752858Y37070766D02*
X40752858Y36842195D01*
X40752858Y36842195D02*
X40810001Y36727909D01*
X40810001Y36727909D02*
X40867144Y36670766D01*
X40867144Y36670766D02*
X40981429Y36613624D01*
X40981429Y36613624D02*
X41210001Y36613624D01*
X41210001Y36613624D02*
X41324287Y36670766D01*
X41324287Y36670766D02*
X41381429Y36727909D01*
X41381429Y36727909D02*
X41438572Y36842195D01*
X41438572Y36842195D02*
X41438572Y37070766D01*
X41438572Y37070766D02*
X41381429Y37185052D01*
X41381429Y37185052D02*
X41324287Y37242195D01*
X41324287Y37242195D02*
X41210001Y37299338D01*
X42467144Y37813624D02*
X42238572Y37813624D01*
X42238572Y37813624D02*
X42124286Y37756481D01*
X42124286Y37756481D02*
X42067144Y37699338D01*
X42067144Y37699338D02*
X41952858Y37527909D01*
X41952858Y37527909D02*
X41895715Y37299338D01*
X41895715Y37299338D02*
X41895715Y36842195D01*
X41895715Y36842195D02*
X41952858Y36727909D01*
X41952858Y36727909D02*
X42010001Y36670766D01*
X42010001Y36670766D02*
X42124286Y36613624D01*
X42124286Y36613624D02*
X42352858Y36613624D01*
X42352858Y36613624D02*
X42467144Y36670766D01*
X42467144Y36670766D02*
X42524286Y36727909D01*
X42524286Y36727909D02*
X42581429Y36842195D01*
X42581429Y36842195D02*
X42581429Y37127909D01*
X42581429Y37127909D02*
X42524286Y37242195D01*
X42524286Y37242195D02*
X42467144Y37299338D01*
X42467144Y37299338D02*
X42352858Y37356481D01*
X42352858Y37356481D02*
X42124286Y37356481D01*
X42124286Y37356481D02*
X42010001Y37299338D01*
X42010001Y37299338D02*
X41952858Y37242195D01*
X41952858Y37242195D02*
X41895715Y37127909D01*
X44010001Y36613624D02*
X44010001Y37813624D01*
X44010001Y37813624D02*
X44410001Y36956481D01*
X44410001Y36956481D02*
X44810001Y37813624D01*
X44810001Y37813624D02*
X44810001Y36613624D01*
X45838573Y36670766D02*
X45724287Y36613624D01*
X45724287Y36613624D02*
X45495716Y36613624D01*
X45495716Y36613624D02*
X45381430Y36670766D01*
X45381430Y36670766D02*
X45324287Y36785052D01*
X45324287Y36785052D02*
X45324287Y37242195D01*
X45324287Y37242195D02*
X45381430Y37356481D01*
X45381430Y37356481D02*
X45495716Y37413624D01*
X45495716Y37413624D02*
X45724287Y37413624D01*
X45724287Y37413624D02*
X45838573Y37356481D01*
X45838573Y37356481D02*
X45895716Y37242195D01*
X45895716Y37242195D02*
X45895716Y37127909D01*
X45895716Y37127909D02*
X45324287Y37013624D01*
X46295715Y37413624D02*
X46924287Y37413624D01*
X46924287Y37413624D02*
X46295715Y36613624D01*
X46295715Y36613624D02*
X46924287Y36613624D01*
X47267144Y37413624D02*
X47895716Y37413624D01*
X47895716Y37413624D02*
X47267144Y36613624D01*
X47267144Y36613624D02*
X47895716Y36613624D01*
X48867145Y36613624D02*
X48867145Y37242195D01*
X48867145Y37242195D02*
X48810002Y37356481D01*
X48810002Y37356481D02*
X48695716Y37413624D01*
X48695716Y37413624D02*
X48467145Y37413624D01*
X48467145Y37413624D02*
X48352859Y37356481D01*
X48867145Y36670766D02*
X48752859Y36613624D01*
X48752859Y36613624D02*
X48467145Y36613624D01*
X48467145Y36613624D02*
X48352859Y36670766D01*
X48352859Y36670766D02*
X48295716Y36785052D01*
X48295716Y36785052D02*
X48295716Y36899338D01*
X48295716Y36899338D02*
X48352859Y37013624D01*
X48352859Y37013624D02*
X48467145Y37070766D01*
X48467145Y37070766D02*
X48752859Y37070766D01*
X48752859Y37070766D02*
X48867145Y37127909D01*
X49438573Y37413624D02*
X49438573Y36613624D01*
X49438573Y37299338D02*
X49495716Y37356481D01*
X49495716Y37356481D02*
X49610001Y37413624D01*
X49610001Y37413624D02*
X49781430Y37413624D01*
X49781430Y37413624D02*
X49895716Y37356481D01*
X49895716Y37356481D02*
X49952859Y37242195D01*
X49952859Y37242195D02*
X49952859Y36613624D01*
X50524287Y36613624D02*
X50524287Y37413624D01*
X50524287Y37813624D02*
X50467144Y37756481D01*
X50467144Y37756481D02*
X50524287Y37699338D01*
X50524287Y37699338D02*
X50581430Y37756481D01*
X50581430Y37756481D02*
X50524287Y37813624D01*
X50524287Y37813624D02*
X50524287Y37699338D01*
X51095716Y37413624D02*
X51095716Y36613624D01*
X51095716Y37299338D02*
X51152859Y37356481D01*
X51152859Y37356481D02*
X51267144Y37413624D01*
X51267144Y37413624D02*
X51438573Y37413624D01*
X51438573Y37413624D02*
X51552859Y37356481D01*
X51552859Y37356481D02*
X51610002Y37242195D01*
X51610002Y37242195D02*
X51610002Y36613624D01*
X52638573Y36670766D02*
X52524287Y36613624D01*
X52524287Y36613624D02*
X52295716Y36613624D01*
X52295716Y36613624D02*
X52181430Y36670766D01*
X52181430Y36670766D02*
X52124287Y36785052D01*
X52124287Y36785052D02*
X52124287Y37242195D01*
X52124287Y37242195D02*
X52181430Y37356481D01*
X52181430Y37356481D02*
X52295716Y37413624D01*
X52295716Y37413624D02*
X52524287Y37413624D01*
X52524287Y37413624D02*
X52638573Y37356481D01*
X52638573Y37356481D02*
X52695716Y37242195D01*
X52695716Y37242195D02*
X52695716Y37127909D01*
X52695716Y37127909D02*
X52124287Y37013624D01*
X54124287Y36613624D02*
X54124287Y37813624D01*
X54124287Y37356481D02*
X54238573Y37413624D01*
X54238573Y37413624D02*
X54467144Y37413624D01*
X54467144Y37413624D02*
X54581430Y37356481D01*
X54581430Y37356481D02*
X54638573Y37299338D01*
X54638573Y37299338D02*
X54695715Y37185052D01*
X54695715Y37185052D02*
X54695715Y36842195D01*
X54695715Y36842195D02*
X54638573Y36727909D01*
X54638573Y36727909D02*
X54581430Y36670766D01*
X54581430Y36670766D02*
X54467144Y36613624D01*
X54467144Y36613624D02*
X54238573Y36613624D01*
X54238573Y36613624D02*
X54124287Y36670766D01*
X55381429Y36613624D02*
X55267144Y36670766D01*
X55267144Y36670766D02*
X55210001Y36727909D01*
X55210001Y36727909D02*
X55152858Y36842195D01*
X55152858Y36842195D02*
X55152858Y37185052D01*
X55152858Y37185052D02*
X55210001Y37299338D01*
X55210001Y37299338D02*
X55267144Y37356481D01*
X55267144Y37356481D02*
X55381429Y37413624D01*
X55381429Y37413624D02*
X55552858Y37413624D01*
X55552858Y37413624D02*
X55667144Y37356481D01*
X55667144Y37356481D02*
X55724287Y37299338D01*
X55724287Y37299338D02*
X55781429Y37185052D01*
X55781429Y37185052D02*
X55781429Y36842195D01*
X55781429Y36842195D02*
X55724287Y36727909D01*
X55724287Y36727909D02*
X55667144Y36670766D01*
X55667144Y36670766D02*
X55552858Y36613624D01*
X55552858Y36613624D02*
X55381429Y36613624D01*
X56810001Y36613624D02*
X56810001Y37242195D01*
X56810001Y37242195D02*
X56752858Y37356481D01*
X56752858Y37356481D02*
X56638572Y37413624D01*
X56638572Y37413624D02*
X56410001Y37413624D01*
X56410001Y37413624D02*
X56295715Y37356481D01*
X56810001Y36670766D02*
X56695715Y36613624D01*
X56695715Y36613624D02*
X56410001Y36613624D01*
X56410001Y36613624D02*
X56295715Y36670766D01*
X56295715Y36670766D02*
X56238572Y36785052D01*
X56238572Y36785052D02*
X56238572Y36899338D01*
X56238572Y36899338D02*
X56295715Y37013624D01*
X56295715Y37013624D02*
X56410001Y37070766D01*
X56410001Y37070766D02*
X56695715Y37070766D01*
X56695715Y37070766D02*
X56810001Y37127909D01*
X57381429Y36613624D02*
X57381429Y37413624D01*
X57381429Y37185052D02*
X57438572Y37299338D01*
X57438572Y37299338D02*
X57495715Y37356481D01*
X57495715Y37356481D02*
X57610000Y37413624D01*
X57610000Y37413624D02*
X57724286Y37413624D01*
X58638572Y36613624D02*
X58638572Y37813624D01*
X58638572Y36670766D02*
X58524286Y36613624D01*
X58524286Y36613624D02*
X58295714Y36613624D01*
X58295714Y36613624D02*
X58181429Y36670766D01*
X58181429Y36670766D02*
X58124286Y36727909D01*
X58124286Y36727909D02*
X58067143Y36842195D01*
X58067143Y36842195D02*
X58067143Y37185052D01*
X58067143Y37185052D02*
X58124286Y37299338D01*
X58124286Y37299338D02*
X58181429Y37356481D01*
X58181429Y37356481D02*
X58295714Y37413624D01*
X58295714Y37413624D02*
X58524286Y37413624D01*
X58524286Y37413624D02*
X58638572Y37356481D01*
X59952857Y37413624D02*
X60410000Y37413624D01*
X60124286Y36613624D02*
X60124286Y37642195D01*
X60124286Y37642195D02*
X60181429Y37756481D01*
X60181429Y37756481D02*
X60295714Y37813624D01*
X60295714Y37813624D02*
X60410000Y37813624D01*
X60981428Y36613624D02*
X60867143Y36670766D01*
X60867143Y36670766D02*
X60810000Y36727909D01*
X60810000Y36727909D02*
X60752857Y36842195D01*
X60752857Y36842195D02*
X60752857Y37185052D01*
X60752857Y37185052D02*
X60810000Y37299338D01*
X60810000Y37299338D02*
X60867143Y37356481D01*
X60867143Y37356481D02*
X60981428Y37413624D01*
X60981428Y37413624D02*
X61152857Y37413624D01*
X61152857Y37413624D02*
X61267143Y37356481D01*
X61267143Y37356481D02*
X61324286Y37299338D01*
X61324286Y37299338D02*
X61381428Y37185052D01*
X61381428Y37185052D02*
X61381428Y36842195D01*
X61381428Y36842195D02*
X61324286Y36727909D01*
X61324286Y36727909D02*
X61267143Y36670766D01*
X61267143Y36670766D02*
X61152857Y36613624D01*
X61152857Y36613624D02*
X60981428Y36613624D01*
X61895714Y36613624D02*
X61895714Y37413624D01*
X61895714Y37185052D02*
X61952857Y37299338D01*
X61952857Y37299338D02*
X62010000Y37356481D01*
X62010000Y37356481D02*
X62124285Y37413624D01*
X62124285Y37413624D02*
X62238571Y37413624D01*
X63552857Y37242195D02*
X63952857Y37242195D01*
X64124285Y36613624D02*
X63552857Y36613624D01*
X63552857Y36613624D02*
X63552857Y37813624D01*
X63552857Y37813624D02*
X64124285Y37813624D01*
X64638571Y36613624D02*
X64638571Y37813624D01*
X64638571Y37813624D02*
X65038571Y36956481D01*
X65038571Y36956481D02*
X65438571Y37813624D01*
X65438571Y37813624D02*
X65438571Y36613624D01*
X66010000Y37813624D02*
X66010000Y36842195D01*
X66010000Y36842195D02*
X66067143Y36727909D01*
X66067143Y36727909D02*
X66124286Y36670766D01*
X66124286Y36670766D02*
X66238571Y36613624D01*
X66238571Y36613624D02*
X66467143Y36613624D01*
X66467143Y36613624D02*
X66581428Y36670766D01*
X66581428Y36670766D02*
X66638571Y36727909D01*
X66638571Y36727909D02*
X66695714Y36842195D01*
X66695714Y36842195D02*
X66695714Y37813624D01*
X67152857Y37813624D02*
X67952857Y37813624D01*
X67952857Y37813624D02*
X67152857Y36613624D01*
X67152857Y36613624D02*
X67952857Y36613624D01*
X68581428Y37299338D02*
X68467143Y37356481D01*
X68467143Y37356481D02*
X68410000Y37413624D01*
X68410000Y37413624D02*
X68352857Y37527909D01*
X68352857Y37527909D02*
X68352857Y37585052D01*
X68352857Y37585052D02*
X68410000Y37699338D01*
X68410000Y37699338D02*
X68467143Y37756481D01*
X68467143Y37756481D02*
X68581428Y37813624D01*
X68581428Y37813624D02*
X68810000Y37813624D01*
X68810000Y37813624D02*
X68924286Y37756481D01*
X68924286Y37756481D02*
X68981428Y37699338D01*
X68981428Y37699338D02*
X69038571Y37585052D01*
X69038571Y37585052D02*
X69038571Y37527909D01*
X69038571Y37527909D02*
X68981428Y37413624D01*
X68981428Y37413624D02*
X68924286Y37356481D01*
X68924286Y37356481D02*
X68810000Y37299338D01*
X68810000Y37299338D02*
X68581428Y37299338D01*
X68581428Y37299338D02*
X68467143Y37242195D01*
X68467143Y37242195D02*
X68410000Y37185052D01*
X68410000Y37185052D02*
X68352857Y37070766D01*
X68352857Y37070766D02*
X68352857Y36842195D01*
X68352857Y36842195D02*
X68410000Y36727909D01*
X68410000Y36727909D02*
X68467143Y36670766D01*
X68467143Y36670766D02*
X68581428Y36613624D01*
X68581428Y36613624D02*
X68810000Y36613624D01*
X68810000Y36613624D02*
X68924286Y36670766D01*
X68924286Y36670766D02*
X68981428Y36727909D01*
X68981428Y36727909D02*
X69038571Y36842195D01*
X69038571Y36842195D02*
X69038571Y37070766D01*
X69038571Y37070766D02*
X68981428Y37185052D01*
X68981428Y37185052D02*
X68924286Y37242195D01*
X68924286Y37242195D02*
X68810000Y37299338D01*
X69781428Y37813624D02*
X69895714Y37813624D01*
X69895714Y37813624D02*
X70010000Y37756481D01*
X70010000Y37756481D02*
X70067143Y37699338D01*
X70067143Y37699338D02*
X70124285Y37585052D01*
X70124285Y37585052D02*
X70181428Y37356481D01*
X70181428Y37356481D02*
X70181428Y37070766D01*
X70181428Y37070766D02*
X70124285Y36842195D01*
X70124285Y36842195D02*
X70067143Y36727909D01*
X70067143Y36727909D02*
X70010000Y36670766D01*
X70010000Y36670766D02*
X69895714Y36613624D01*
X69895714Y36613624D02*
X69781428Y36613624D01*
X69781428Y36613624D02*
X69667143Y36670766D01*
X69667143Y36670766D02*
X69610000Y36727909D01*
X69610000Y36727909D02*
X69552857Y36842195D01*
X69552857Y36842195D02*
X69495714Y37070766D01*
X69495714Y37070766D02*
X69495714Y37356481D01*
X69495714Y37356481D02*
X69552857Y37585052D01*
X69552857Y37585052D02*
X69610000Y37699338D01*
X69610000Y37699338D02*
X69667143Y37756481D01*
X69667143Y37756481D02*
X69781428Y37813624D01*
X38524285Y34681691D02*
X38524285Y35881691D01*
X38524285Y35881691D02*
X38809999Y35881691D01*
X38809999Y35881691D02*
X38981428Y35824548D01*
X38981428Y35824548D02*
X39095713Y35710262D01*
X39095713Y35710262D02*
X39152856Y35595976D01*
X39152856Y35595976D02*
X39209999Y35367405D01*
X39209999Y35367405D02*
X39209999Y35195976D01*
X39209999Y35195976D02*
X39152856Y34967405D01*
X39152856Y34967405D02*
X39095713Y34853119D01*
X39095713Y34853119D02*
X38981428Y34738833D01*
X38981428Y34738833D02*
X38809999Y34681691D01*
X38809999Y34681691D02*
X38524285Y34681691D01*
X39609999Y35481691D02*
X39895713Y34681691D01*
X40181428Y35481691D02*
X39895713Y34681691D01*
X39895713Y34681691D02*
X39781428Y34395976D01*
X39781428Y34395976D02*
X39724285Y34338833D01*
X39724285Y34338833D02*
X39609999Y34281691D01*
X40638571Y35481691D02*
X40638571Y34681691D01*
X40638571Y35367405D02*
X40695714Y35424548D01*
X40695714Y35424548D02*
X40809999Y35481691D01*
X40809999Y35481691D02*
X40981428Y35481691D01*
X40981428Y35481691D02*
X41095714Y35424548D01*
X41095714Y35424548D02*
X41152857Y35310262D01*
X41152857Y35310262D02*
X41152857Y34681691D01*
X42238571Y34681691D02*
X42238571Y35310262D01*
X42238571Y35310262D02*
X42181428Y35424548D01*
X42181428Y35424548D02*
X42067142Y35481691D01*
X42067142Y35481691D02*
X41838571Y35481691D01*
X41838571Y35481691D02*
X41724285Y35424548D01*
X42238571Y34738833D02*
X42124285Y34681691D01*
X42124285Y34681691D02*
X41838571Y34681691D01*
X41838571Y34681691D02*
X41724285Y34738833D01*
X41724285Y34738833D02*
X41667142Y34853119D01*
X41667142Y34853119D02*
X41667142Y34967405D01*
X41667142Y34967405D02*
X41724285Y35081691D01*
X41724285Y35081691D02*
X41838571Y35138833D01*
X41838571Y35138833D02*
X42124285Y35138833D01*
X42124285Y35138833D02*
X42238571Y35195976D01*
X42809999Y34681691D02*
X42809999Y35481691D01*
X42809999Y35367405D02*
X42867142Y35424548D01*
X42867142Y35424548D02*
X42981427Y35481691D01*
X42981427Y35481691D02*
X43152856Y35481691D01*
X43152856Y35481691D02*
X43267142Y35424548D01*
X43267142Y35424548D02*
X43324285Y35310262D01*
X43324285Y35310262D02*
X43324285Y34681691D01*
X43324285Y35310262D02*
X43381427Y35424548D01*
X43381427Y35424548D02*
X43495713Y35481691D01*
X43495713Y35481691D02*
X43667142Y35481691D01*
X43667142Y35481691D02*
X43781427Y35424548D01*
X43781427Y35424548D02*
X43838570Y35310262D01*
X43838570Y35310262D02*
X43838570Y34681691D01*
X44409999Y34681691D02*
X44409999Y35481691D01*
X44409999Y35881691D02*
X44352856Y35824548D01*
X44352856Y35824548D02*
X44409999Y35767405D01*
X44409999Y35767405D02*
X44467142Y35824548D01*
X44467142Y35824548D02*
X44409999Y35881691D01*
X44409999Y35881691D02*
X44409999Y35767405D01*
X45495714Y34738833D02*
X45381428Y34681691D01*
X45381428Y34681691D02*
X45152856Y34681691D01*
X45152856Y34681691D02*
X45038571Y34738833D01*
X45038571Y34738833D02*
X44981428Y34795976D01*
X44981428Y34795976D02*
X44924285Y34910262D01*
X44924285Y34910262D02*
X44924285Y35253119D01*
X44924285Y35253119D02*
X44981428Y35367405D01*
X44981428Y35367405D02*
X45038571Y35424548D01*
X45038571Y35424548D02*
X45152856Y35481691D01*
X45152856Y35481691D02*
X45381428Y35481691D01*
X45381428Y35481691D02*
X45495714Y35424548D01*
X46924285Y34681691D02*
X46924285Y35881691D01*
X46924285Y35424548D02*
X47038571Y35481691D01*
X47038571Y35481691D02*
X47267142Y35481691D01*
X47267142Y35481691D02*
X47381428Y35424548D01*
X47381428Y35424548D02*
X47438571Y35367405D01*
X47438571Y35367405D02*
X47495713Y35253119D01*
X47495713Y35253119D02*
X47495713Y34910262D01*
X47495713Y34910262D02*
X47438571Y34795976D01*
X47438571Y34795976D02*
X47381428Y34738833D01*
X47381428Y34738833D02*
X47267142Y34681691D01*
X47267142Y34681691D02*
X47038571Y34681691D01*
X47038571Y34681691D02*
X46924285Y34738833D01*
X48524285Y35481691D02*
X48524285Y34681691D01*
X48009999Y35481691D02*
X48009999Y34853119D01*
X48009999Y34853119D02*
X48067142Y34738833D01*
X48067142Y34738833D02*
X48181427Y34681691D01*
X48181427Y34681691D02*
X48352856Y34681691D01*
X48352856Y34681691D02*
X48467142Y34738833D01*
X48467142Y34738833D02*
X48524285Y34795976D01*
X49038570Y34738833D02*
X49152856Y34681691D01*
X49152856Y34681691D02*
X49381427Y34681691D01*
X49381427Y34681691D02*
X49495713Y34738833D01*
X49495713Y34738833D02*
X49552856Y34853119D01*
X49552856Y34853119D02*
X49552856Y34910262D01*
X49552856Y34910262D02*
X49495713Y35024548D01*
X49495713Y35024548D02*
X49381427Y35081691D01*
X49381427Y35081691D02*
X49209999Y35081691D01*
X49209999Y35081691D02*
X49095713Y35138833D01*
X49095713Y35138833D02*
X49038570Y35253119D01*
X49038570Y35253119D02*
X49038570Y35310262D01*
X49038570Y35310262D02*
X49095713Y35424548D01*
X49095713Y35424548D02*
X49209999Y35481691D01*
X49209999Y35481691D02*
X49381427Y35481691D01*
X49381427Y35481691D02*
X49495713Y35424548D01*
X50924285Y34738833D02*
X51038571Y34681691D01*
X51038571Y34681691D02*
X51267142Y34681691D01*
X51267142Y34681691D02*
X51381428Y34738833D01*
X51381428Y34738833D02*
X51438571Y34853119D01*
X51438571Y34853119D02*
X51438571Y34910262D01*
X51438571Y34910262D02*
X51381428Y35024548D01*
X51381428Y35024548D02*
X51267142Y35081691D01*
X51267142Y35081691D02*
X51095714Y35081691D01*
X51095714Y35081691D02*
X50981428Y35138833D01*
X50981428Y35138833D02*
X50924285Y35253119D01*
X50924285Y35253119D02*
X50924285Y35310262D01*
X50924285Y35310262D02*
X50981428Y35424548D01*
X50981428Y35424548D02*
X51095714Y35481691D01*
X51095714Y35481691D02*
X51267142Y35481691D01*
X51267142Y35481691D02*
X51381428Y35424548D01*
X51952857Y34681691D02*
X51952857Y35481691D01*
X51952857Y35881691D02*
X51895714Y35824548D01*
X51895714Y35824548D02*
X51952857Y35767405D01*
X51952857Y35767405D02*
X52010000Y35824548D01*
X52010000Y35824548D02*
X51952857Y35881691D01*
X51952857Y35881691D02*
X51952857Y35767405D01*
X52410000Y35481691D02*
X53038572Y35481691D01*
X53038572Y35481691D02*
X52410000Y34681691D01*
X52410000Y34681691D02*
X53038572Y34681691D01*
X53495715Y34681691D02*
X53495715Y35481691D01*
X53495715Y35881691D02*
X53438572Y35824548D01*
X53438572Y35824548D02*
X53495715Y35767405D01*
X53495715Y35767405D02*
X53552858Y35824548D01*
X53552858Y35824548D02*
X53495715Y35881691D01*
X53495715Y35881691D02*
X53495715Y35767405D01*
X54067144Y35481691D02*
X54067144Y34681691D01*
X54067144Y35367405D02*
X54124287Y35424548D01*
X54124287Y35424548D02*
X54238572Y35481691D01*
X54238572Y35481691D02*
X54410001Y35481691D01*
X54410001Y35481691D02*
X54524287Y35424548D01*
X54524287Y35424548D02*
X54581430Y35310262D01*
X54581430Y35310262D02*
X54581430Y34681691D01*
X55667144Y35481691D02*
X55667144Y34510262D01*
X55667144Y34510262D02*
X55610001Y34395976D01*
X55610001Y34395976D02*
X55552858Y34338833D01*
X55552858Y34338833D02*
X55438572Y34281691D01*
X55438572Y34281691D02*
X55267144Y34281691D01*
X55267144Y34281691D02*
X55152858Y34338833D01*
X55667144Y34738833D02*
X55552858Y34681691D01*
X55552858Y34681691D02*
X55324286Y34681691D01*
X55324286Y34681691D02*
X55210001Y34738833D01*
X55210001Y34738833D02*
X55152858Y34795976D01*
X55152858Y34795976D02*
X55095715Y34910262D01*
X55095715Y34910262D02*
X55095715Y35253119D01*
X55095715Y35253119D02*
X55152858Y35367405D01*
X55152858Y35367405D02*
X55210001Y35424548D01*
X55210001Y35424548D02*
X55324286Y35481691D01*
X55324286Y35481691D02*
X55552858Y35481691D01*
X55552858Y35481691D02*
X55667144Y35424548D01*
X57324286Y35367405D02*
X57210001Y35424548D01*
X57210001Y35424548D02*
X57152858Y35481691D01*
X57152858Y35481691D02*
X57095715Y35595976D01*
X57095715Y35595976D02*
X57095715Y35653119D01*
X57095715Y35653119D02*
X57152858Y35767405D01*
X57152858Y35767405D02*
X57210001Y35824548D01*
X57210001Y35824548D02*
X57324286Y35881691D01*
X57324286Y35881691D02*
X57552858Y35881691D01*
X57552858Y35881691D02*
X57667144Y35824548D01*
X57667144Y35824548D02*
X57724286Y35767405D01*
X57724286Y35767405D02*
X57781429Y35653119D01*
X57781429Y35653119D02*
X57781429Y35595976D01*
X57781429Y35595976D02*
X57724286Y35481691D01*
X57724286Y35481691D02*
X57667144Y35424548D01*
X57667144Y35424548D02*
X57552858Y35367405D01*
X57552858Y35367405D02*
X57324286Y35367405D01*
X57324286Y35367405D02*
X57210001Y35310262D01*
X57210001Y35310262D02*
X57152858Y35253119D01*
X57152858Y35253119D02*
X57095715Y35138833D01*
X57095715Y35138833D02*
X57095715Y34910262D01*
X57095715Y34910262D02*
X57152858Y34795976D01*
X57152858Y34795976D02*
X57210001Y34738833D01*
X57210001Y34738833D02*
X57324286Y34681691D01*
X57324286Y34681691D02*
X57552858Y34681691D01*
X57552858Y34681691D02*
X57667144Y34738833D01*
X57667144Y34738833D02*
X57724286Y34795976D01*
X57724286Y34795976D02*
X57781429Y34910262D01*
X57781429Y34910262D02*
X57781429Y35138833D01*
X57781429Y35138833D02*
X57724286Y35253119D01*
X57724286Y35253119D02*
X57667144Y35310262D01*
X57667144Y35310262D02*
X57552858Y35367405D01*
X58295715Y35138833D02*
X59210001Y35138833D01*
X59781429Y34681691D02*
X59781429Y35881691D01*
X59781429Y35424548D02*
X59895715Y35481691D01*
X59895715Y35481691D02*
X60124286Y35481691D01*
X60124286Y35481691D02*
X60238572Y35424548D01*
X60238572Y35424548D02*
X60295715Y35367405D01*
X60295715Y35367405D02*
X60352857Y35253119D01*
X60352857Y35253119D02*
X60352857Y34910262D01*
X60352857Y34910262D02*
X60295715Y34795976D01*
X60295715Y34795976D02*
X60238572Y34738833D01*
X60238572Y34738833D02*
X60124286Y34681691D01*
X60124286Y34681691D02*
X59895715Y34681691D01*
X59895715Y34681691D02*
X59781429Y34738833D01*
X60867143Y34681691D02*
X60867143Y35481691D01*
X60867143Y35881691D02*
X60810000Y35824548D01*
X60810000Y35824548D02*
X60867143Y35767405D01*
X60867143Y35767405D02*
X60924286Y35824548D01*
X60924286Y35824548D02*
X60867143Y35881691D01*
X60867143Y35881691D02*
X60867143Y35767405D01*
X61267143Y35481691D02*
X61724286Y35481691D01*
X61438572Y35881691D02*
X61438572Y34853119D01*
X61438572Y34853119D02*
X61495715Y34738833D01*
X61495715Y34738833D02*
X61610000Y34681691D01*
X61610000Y34681691D02*
X61724286Y34681691D01*
X63038572Y34681691D02*
X63038572Y35881691D01*
X63038572Y35881691D02*
X63324286Y35881691D01*
X63324286Y35881691D02*
X63495715Y35824548D01*
X63495715Y35824548D02*
X63610000Y35710262D01*
X63610000Y35710262D02*
X63667143Y35595976D01*
X63667143Y35595976D02*
X63724286Y35367405D01*
X63724286Y35367405D02*
X63724286Y35195976D01*
X63724286Y35195976D02*
X63667143Y34967405D01*
X63667143Y34967405D02*
X63610000Y34853119D01*
X63610000Y34853119D02*
X63495715Y34738833D01*
X63495715Y34738833D02*
X63324286Y34681691D01*
X63324286Y34681691D02*
X63038572Y34681691D01*
X64752858Y34681691D02*
X64752858Y35310262D01*
X64752858Y35310262D02*
X64695715Y35424548D01*
X64695715Y35424548D02*
X64581429Y35481691D01*
X64581429Y35481691D02*
X64352858Y35481691D01*
X64352858Y35481691D02*
X64238572Y35424548D01*
X64752858Y34738833D02*
X64638572Y34681691D01*
X64638572Y34681691D02*
X64352858Y34681691D01*
X64352858Y34681691D02*
X64238572Y34738833D01*
X64238572Y34738833D02*
X64181429Y34853119D01*
X64181429Y34853119D02*
X64181429Y34967405D01*
X64181429Y34967405D02*
X64238572Y35081691D01*
X64238572Y35081691D02*
X64352858Y35138833D01*
X64352858Y35138833D02*
X64638572Y35138833D01*
X64638572Y35138833D02*
X64752858Y35195976D01*
X65152857Y35481691D02*
X65610000Y35481691D01*
X65324286Y35881691D02*
X65324286Y34853119D01*
X65324286Y34853119D02*
X65381429Y34738833D01*
X65381429Y34738833D02*
X65495714Y34681691D01*
X65495714Y34681691D02*
X65610000Y34681691D01*
X66524286Y34681691D02*
X66524286Y35310262D01*
X66524286Y35310262D02*
X66467143Y35424548D01*
X66467143Y35424548D02*
X66352857Y35481691D01*
X66352857Y35481691D02*
X66124286Y35481691D01*
X66124286Y35481691D02*
X66010000Y35424548D01*
X66524286Y34738833D02*
X66410000Y34681691D01*
X66410000Y34681691D02*
X66124286Y34681691D01*
X66124286Y34681691D02*
X66010000Y34738833D01*
X66010000Y34738833D02*
X65952857Y34853119D01*
X65952857Y34853119D02*
X65952857Y34967405D01*
X65952857Y34967405D02*
X66010000Y35081691D01*
X66010000Y35081691D02*
X66124286Y35138833D01*
X66124286Y35138833D02*
X66410000Y35138833D01*
X66410000Y35138833D02*
X66524286Y35195976D01*
X68410000Y35310262D02*
X68581428Y35253119D01*
X68581428Y35253119D02*
X68638571Y35195976D01*
X68638571Y35195976D02*
X68695714Y35081691D01*
X68695714Y35081691D02*
X68695714Y34910262D01*
X68695714Y34910262D02*
X68638571Y34795976D01*
X68638571Y34795976D02*
X68581428Y34738833D01*
X68581428Y34738833D02*
X68467143Y34681691D01*
X68467143Y34681691D02*
X68010000Y34681691D01*
X68010000Y34681691D02*
X68010000Y35881691D01*
X68010000Y35881691D02*
X68410000Y35881691D01*
X68410000Y35881691D02*
X68524286Y35824548D01*
X68524286Y35824548D02*
X68581428Y35767405D01*
X68581428Y35767405D02*
X68638571Y35653119D01*
X68638571Y35653119D02*
X68638571Y35538833D01*
X68638571Y35538833D02*
X68581428Y35424548D01*
X68581428Y35424548D02*
X68524286Y35367405D01*
X68524286Y35367405D02*
X68410000Y35310262D01*
X68410000Y35310262D02*
X68010000Y35310262D01*
X69724286Y35481691D02*
X69724286Y34681691D01*
X69210000Y35481691D02*
X69210000Y34853119D01*
X69210000Y34853119D02*
X69267143Y34738833D01*
X69267143Y34738833D02*
X69381428Y34681691D01*
X69381428Y34681691D02*
X69552857Y34681691D01*
X69552857Y34681691D02*
X69667143Y34738833D01*
X69667143Y34738833D02*
X69724286Y34795976D01*
X70238571Y34738833D02*
X70352857Y34681691D01*
X70352857Y34681691D02*
X70581428Y34681691D01*
X70581428Y34681691D02*
X70695714Y34738833D01*
X70695714Y34738833D02*
X70752857Y34853119D01*
X70752857Y34853119D02*
X70752857Y34910262D01*
X70752857Y34910262D02*
X70695714Y35024548D01*
X70695714Y35024548D02*
X70581428Y35081691D01*
X70581428Y35081691D02*
X70410000Y35081691D01*
X70410000Y35081691D02*
X70295714Y35138833D01*
X70295714Y35138833D02*
X70238571Y35253119D01*
X70238571Y35253119D02*
X70238571Y35310262D01*
X70238571Y35310262D02*
X70295714Y35424548D01*
X70295714Y35424548D02*
X70410000Y35481691D01*
X70410000Y35481691D02*
X70581428Y35481691D01*
X70581428Y35481691D02*
X70695714Y35424548D01*
X28940476Y2720181D02*
X28940476Y3720181D01*
X28940476Y3720181D02*
X29178571Y3720181D01*
X29178571Y3720181D02*
X29321428Y3672562D01*
X29321428Y3672562D02*
X29416666Y3577324D01*
X29416666Y3577324D02*
X29464285Y3482086D01*
X29464285Y3482086D02*
X29511904Y3291610D01*
X29511904Y3291610D02*
X29511904Y3148753D01*
X29511904Y3148753D02*
X29464285Y2958277D01*
X29464285Y2958277D02*
X29416666Y2863039D01*
X29416666Y2863039D02*
X29321428Y2767800D01*
X29321428Y2767800D02*
X29178571Y2720181D01*
X29178571Y2720181D02*
X28940476Y2720181D01*
X30464285Y2720181D02*
X29892857Y2720181D01*
X30178571Y2720181D02*
X30178571Y3720181D01*
X30178571Y3720181D02*
X30083333Y3577324D01*
X30083333Y3577324D02*
X29988095Y3482086D01*
X29988095Y3482086D02*
X29892857Y3434467D01*
X31369047Y3720181D02*
X30892857Y3720181D01*
X30892857Y3720181D02*
X30845238Y3243991D01*
X30845238Y3243991D02*
X30892857Y3291610D01*
X30892857Y3291610D02*
X30988095Y3339229D01*
X30988095Y3339229D02*
X31226190Y3339229D01*
X31226190Y3339229D02*
X31321428Y3291610D01*
X31321428Y3291610D02*
X31369047Y3243991D01*
X31369047Y3243991D02*
X31416666Y3148753D01*
X31416666Y3148753D02*
X31416666Y2910658D01*
X31416666Y2910658D02*
X31369047Y2815420D01*
X31369047Y2815420D02*
X31321428Y2767800D01*
X31321428Y2767800D02*
X31226190Y2720181D01*
X31226190Y2720181D02*
X30988095Y2720181D01*
X30988095Y2720181D02*
X30892857Y2767800D01*
X30892857Y2767800D02*
X30845238Y2815420D01*
X31845238Y3101134D02*
X32607143Y3101134D01*
X33083333Y2720181D02*
X33083333Y3720181D01*
X33083333Y3720181D02*
X33321428Y3720181D01*
X33321428Y3720181D02*
X33464285Y3672562D01*
X33464285Y3672562D02*
X33559523Y3577324D01*
X33559523Y3577324D02*
X33607142Y3482086D01*
X33607142Y3482086D02*
X33654761Y3291610D01*
X33654761Y3291610D02*
X33654761Y3148753D01*
X33654761Y3148753D02*
X33607142Y2958277D01*
X33607142Y2958277D02*
X33559523Y2863039D01*
X33559523Y2863039D02*
X33464285Y2767800D01*
X33464285Y2767800D02*
X33321428Y2720181D01*
X33321428Y2720181D02*
X33083333Y2720181D01*
X34226190Y3291610D02*
X34130952Y3339229D01*
X34130952Y3339229D02*
X34083333Y3386848D01*
X34083333Y3386848D02*
X34035714Y3482086D01*
X34035714Y3482086D02*
X34035714Y3529705D01*
X34035714Y3529705D02*
X34083333Y3624943D01*
X34083333Y3624943D02*
X34130952Y3672562D01*
X34130952Y3672562D02*
X34226190Y3720181D01*
X34226190Y3720181D02*
X34416666Y3720181D01*
X34416666Y3720181D02*
X34511904Y3672562D01*
X34511904Y3672562D02*
X34559523Y3624943D01*
X34559523Y3624943D02*
X34607142Y3529705D01*
X34607142Y3529705D02*
X34607142Y3482086D01*
X34607142Y3482086D02*
X34559523Y3386848D01*
X34559523Y3386848D02*
X34511904Y3339229D01*
X34511904Y3339229D02*
X34416666Y3291610D01*
X34416666Y3291610D02*
X34226190Y3291610D01*
X34226190Y3291610D02*
X34130952Y3243991D01*
X34130952Y3243991D02*
X34083333Y3196372D01*
X34083333Y3196372D02*
X34035714Y3101134D01*
X34035714Y3101134D02*
X34035714Y2910658D01*
X34035714Y2910658D02*
X34083333Y2815420D01*
X34083333Y2815420D02*
X34130952Y2767800D01*
X34130952Y2767800D02*
X34226190Y2720181D01*
X34226190Y2720181D02*
X34416666Y2720181D01*
X34416666Y2720181D02*
X34511904Y2767800D01*
X34511904Y2767800D02*
X34559523Y2815420D01*
X34559523Y2815420D02*
X34607142Y2910658D01*
X34607142Y2910658D02*
X34607142Y3101134D01*
X34607142Y3101134D02*
X34559523Y3196372D01*
X34559523Y3196372D02*
X34511904Y3243991D01*
X34511904Y3243991D02*
X34416666Y3291610D01*
X21511190Y1815181D02*
X22177856Y1815181D01*
X22177856Y1815181D02*
X21749285Y815181D01*
X22987380Y1481848D02*
X22987380Y815181D01*
X22749285Y1862800D02*
X22511190Y1148515D01*
X22511190Y1148515D02*
X23130237Y1148515D01*
X23511190Y815181D02*
X23511190Y1815181D01*
X23511190Y1338991D02*
X24082618Y1338991D01*
X24082618Y815181D02*
X24082618Y1815181D01*
X25130237Y910420D02*
X25082618Y862800D01*
X25082618Y862800D02*
X24939761Y815181D01*
X24939761Y815181D02*
X24844523Y815181D01*
X24844523Y815181D02*
X24701666Y862800D01*
X24701666Y862800D02*
X24606428Y958039D01*
X24606428Y958039D02*
X24558809Y1053277D01*
X24558809Y1053277D02*
X24511190Y1243753D01*
X24511190Y1243753D02*
X24511190Y1386610D01*
X24511190Y1386610D02*
X24558809Y1577086D01*
X24558809Y1577086D02*
X24606428Y1672324D01*
X24606428Y1672324D02*
X24701666Y1767562D01*
X24701666Y1767562D02*
X24844523Y1815181D01*
X24844523Y1815181D02*
X24939761Y1815181D01*
X24939761Y1815181D02*
X25082618Y1767562D01*
X25082618Y1767562D02*
X25130237Y1719943D01*
X25987380Y1815181D02*
X25796904Y1815181D01*
X25796904Y1815181D02*
X25701666Y1767562D01*
X25701666Y1767562D02*
X25654047Y1719943D01*
X25654047Y1719943D02*
X25558809Y1577086D01*
X25558809Y1577086D02*
X25511190Y1386610D01*
X25511190Y1386610D02*
X25511190Y1005658D01*
X25511190Y1005658D02*
X25558809Y910420D01*
X25558809Y910420D02*
X25606428Y862800D01*
X25606428Y862800D02*
X25701666Y815181D01*
X25701666Y815181D02*
X25892142Y815181D01*
X25892142Y815181D02*
X25987380Y862800D01*
X25987380Y862800D02*
X26034999Y910420D01*
X26034999Y910420D02*
X26082618Y1005658D01*
X26082618Y1005658D02*
X26082618Y1243753D01*
X26082618Y1243753D02*
X26034999Y1338991D01*
X26034999Y1338991D02*
X25987380Y1386610D01*
X25987380Y1386610D02*
X25892142Y1434229D01*
X25892142Y1434229D02*
X25701666Y1434229D01*
X25701666Y1434229D02*
X25606428Y1386610D01*
X25606428Y1386610D02*
X25558809Y1338991D01*
X25558809Y1338991D02*
X25511190Y1243753D01*
X26939761Y1481848D02*
X26939761Y815181D01*
X26701666Y1862800D02*
X26463571Y1148515D01*
X26463571Y1148515D02*
X27082618Y1148515D01*
X27939761Y1815181D02*
X27463571Y1815181D01*
X27463571Y1815181D02*
X27415952Y1338991D01*
X27415952Y1338991D02*
X27463571Y1386610D01*
X27463571Y1386610D02*
X27558809Y1434229D01*
X27558809Y1434229D02*
X27796904Y1434229D01*
X27796904Y1434229D02*
X27892142Y1386610D01*
X27892142Y1386610D02*
X27939761Y1338991D01*
X27939761Y1338991D02*
X27987380Y1243753D01*
X27987380Y1243753D02*
X27987380Y1005658D01*
X27987380Y1005658D02*
X27939761Y910420D01*
X27939761Y910420D02*
X27892142Y862800D01*
X27892142Y862800D02*
X27796904Y815181D01*
X27796904Y815181D02*
X27558809Y815181D01*
X27558809Y815181D02*
X27463571Y862800D01*
X27463571Y862800D02*
X27415952Y910420D01*
X29082619Y815181D02*
X29606428Y1481848D01*
X29082619Y1481848D02*
X29606428Y815181D01*
X30415952Y1481848D02*
X30415952Y815181D01*
X30177857Y1862800D02*
X29939762Y1148515D01*
X29939762Y1148515D02*
X30558809Y1148515D01*
X40846667Y2720181D02*
X40846667Y3720181D01*
X40846667Y3720181D02*
X41084762Y3720181D01*
X41084762Y3720181D02*
X41227619Y3672562D01*
X41227619Y3672562D02*
X41322857Y3577324D01*
X41322857Y3577324D02*
X41370476Y3482086D01*
X41370476Y3482086D02*
X41418095Y3291610D01*
X41418095Y3291610D02*
X41418095Y3148753D01*
X41418095Y3148753D02*
X41370476Y2958277D01*
X41370476Y2958277D02*
X41322857Y2863039D01*
X41322857Y2863039D02*
X41227619Y2767800D01*
X41227619Y2767800D02*
X41084762Y2720181D01*
X41084762Y2720181D02*
X40846667Y2720181D01*
X41751429Y3720181D02*
X42418095Y3720181D01*
X42418095Y3720181D02*
X41989524Y2720181D01*
X42799048Y3101134D02*
X43560953Y3101134D01*
X44037143Y2720181D02*
X44037143Y3720181D01*
X44037143Y3720181D02*
X44275238Y3720181D01*
X44275238Y3720181D02*
X44418095Y3672562D01*
X44418095Y3672562D02*
X44513333Y3577324D01*
X44513333Y3577324D02*
X44560952Y3482086D01*
X44560952Y3482086D02*
X44608571Y3291610D01*
X44608571Y3291610D02*
X44608571Y3148753D01*
X44608571Y3148753D02*
X44560952Y2958277D01*
X44560952Y2958277D02*
X44513333Y2863039D01*
X44513333Y2863039D02*
X44418095Y2767800D01*
X44418095Y2767800D02*
X44275238Y2720181D01*
X44275238Y2720181D02*
X44037143Y2720181D01*
X45227619Y3720181D02*
X45322857Y3720181D01*
X45322857Y3720181D02*
X45418095Y3672562D01*
X45418095Y3672562D02*
X45465714Y3624943D01*
X45465714Y3624943D02*
X45513333Y3529705D01*
X45513333Y3529705D02*
X45560952Y3339229D01*
X45560952Y3339229D02*
X45560952Y3101134D01*
X45560952Y3101134D02*
X45513333Y2910658D01*
X45513333Y2910658D02*
X45465714Y2815420D01*
X45465714Y2815420D02*
X45418095Y2767800D01*
X45418095Y2767800D02*
X45322857Y2720181D01*
X45322857Y2720181D02*
X45227619Y2720181D01*
X45227619Y2720181D02*
X45132381Y2767800D01*
X45132381Y2767800D02*
X45084762Y2815420D01*
X45084762Y2815420D02*
X45037143Y2910658D01*
X45037143Y2910658D02*
X44989524Y3101134D01*
X44989524Y3101134D02*
X44989524Y3339229D01*
X44989524Y3339229D02*
X45037143Y3529705D01*
X45037143Y3529705D02*
X45084762Y3624943D01*
X45084762Y3624943D02*
X45132381Y3672562D01*
X45132381Y3672562D02*
X45227619Y3720181D01*
X53181429Y66560125D02*
X53181429Y67226792D01*
X53181429Y67560125D02*
X53133810Y67512506D01*
X53133810Y67512506D02*
X53181429Y67464887D01*
X53181429Y67464887D02*
X53229048Y67512506D01*
X53229048Y67512506D02*
X53181429Y67560125D01*
X53181429Y67560125D02*
X53181429Y67464887D01*
X54086190Y67226792D02*
X54086190Y66560125D01*
X53848095Y67607744D02*
X53610000Y66893459D01*
X53610000Y66893459D02*
X54229047Y66893459D01*
X54752857Y67131554D02*
X54657619Y67179173D01*
X54657619Y67179173D02*
X54610000Y67226792D01*
X54610000Y67226792D02*
X54562381Y67322030D01*
X54562381Y67322030D02*
X54562381Y67369649D01*
X54562381Y67369649D02*
X54610000Y67464887D01*
X54610000Y67464887D02*
X54657619Y67512506D01*
X54657619Y67512506D02*
X54752857Y67560125D01*
X54752857Y67560125D02*
X54943333Y67560125D01*
X54943333Y67560125D02*
X55038571Y67512506D01*
X55038571Y67512506D02*
X55086190Y67464887D01*
X55086190Y67464887D02*
X55133809Y67369649D01*
X55133809Y67369649D02*
X55133809Y67322030D01*
X55133809Y67322030D02*
X55086190Y67226792D01*
X55086190Y67226792D02*
X55038571Y67179173D01*
X55038571Y67179173D02*
X54943333Y67131554D01*
X54943333Y67131554D02*
X54752857Y67131554D01*
X54752857Y67131554D02*
X54657619Y67083935D01*
X54657619Y67083935D02*
X54610000Y67036316D01*
X54610000Y67036316D02*
X54562381Y66941078D01*
X54562381Y66941078D02*
X54562381Y66750602D01*
X54562381Y66750602D02*
X54610000Y66655364D01*
X54610000Y66655364D02*
X54657619Y66607744D01*
X54657619Y66607744D02*
X54752857Y66560125D01*
X54752857Y66560125D02*
X54943333Y66560125D01*
X54943333Y66560125D02*
X55038571Y66607744D01*
X55038571Y66607744D02*
X55086190Y66655364D01*
X55086190Y66655364D02*
X55133809Y66750602D01*
X55133809Y66750602D02*
X55133809Y66941078D01*
X55133809Y66941078D02*
X55086190Y67036316D01*
X55086190Y67036316D02*
X55038571Y67083935D01*
X55038571Y67083935D02*
X54943333Y67131554D01*
X55990952Y67560125D02*
X55800476Y67560125D01*
X55800476Y67560125D02*
X55705238Y67512506D01*
X55705238Y67512506D02*
X55657619Y67464887D01*
X55657619Y67464887D02*
X55562381Y67322030D01*
X55562381Y67322030D02*
X55514762Y67131554D01*
X55514762Y67131554D02*
X55514762Y66750602D01*
X55514762Y66750602D02*
X55562381Y66655364D01*
X55562381Y66655364D02*
X55610000Y66607744D01*
X55610000Y66607744D02*
X55705238Y66560125D01*
X55705238Y66560125D02*
X55895714Y66560125D01*
X55895714Y66560125D02*
X55990952Y66607744D01*
X55990952Y66607744D02*
X56038571Y66655364D01*
X56038571Y66655364D02*
X56086190Y66750602D01*
X56086190Y66750602D02*
X56086190Y66988697D01*
X56086190Y66988697D02*
X56038571Y67083935D01*
X56038571Y67083935D02*
X55990952Y67131554D01*
X55990952Y67131554D02*
X55895714Y67179173D01*
X55895714Y67179173D02*
X55705238Y67179173D01*
X55705238Y67179173D02*
X55610000Y67131554D01*
X55610000Y67131554D02*
X55562381Y67083935D01*
X55562381Y67083935D02*
X55514762Y66988697D01*
X46943333Y63340237D02*
X46943333Y64340237D01*
X46943333Y64340237D02*
X47181428Y64340237D01*
X47181428Y64340237D02*
X47324285Y64292618D01*
X47324285Y64292618D02*
X47419523Y64197380D01*
X47419523Y64197380D02*
X47467142Y64102142D01*
X47467142Y64102142D02*
X47514761Y63911666D01*
X47514761Y63911666D02*
X47514761Y63768809D01*
X47514761Y63768809D02*
X47467142Y63578333D01*
X47467142Y63578333D02*
X47419523Y63483095D01*
X47419523Y63483095D02*
X47324285Y63387856D01*
X47324285Y63387856D02*
X47181428Y63340237D01*
X47181428Y63340237D02*
X46943333Y63340237D01*
X48133809Y64340237D02*
X48324285Y64340237D01*
X48324285Y64340237D02*
X48419523Y64292618D01*
X48419523Y64292618D02*
X48514761Y64197380D01*
X48514761Y64197380D02*
X48562380Y64006904D01*
X48562380Y64006904D02*
X48562380Y63673571D01*
X48562380Y63673571D02*
X48514761Y63483095D01*
X48514761Y63483095D02*
X48419523Y63387856D01*
X48419523Y63387856D02*
X48324285Y63340237D01*
X48324285Y63340237D02*
X48133809Y63340237D01*
X48133809Y63340237D02*
X48038571Y63387856D01*
X48038571Y63387856D02*
X47943333Y63483095D01*
X47943333Y63483095D02*
X47895714Y63673571D01*
X47895714Y63673571D02*
X47895714Y64006904D01*
X47895714Y64006904D02*
X47943333Y64197380D01*
X47943333Y64197380D02*
X48038571Y64292618D01*
X48038571Y64292618D02*
X48133809Y64340237D01*
X49752857Y63340237D02*
X49752857Y64340237D01*
X49752857Y64340237D02*
X50324285Y63340237D01*
X50324285Y63340237D02*
X50324285Y64340237D01*
X50990952Y64340237D02*
X51181428Y64340237D01*
X51181428Y64340237D02*
X51276666Y64292618D01*
X51276666Y64292618D02*
X51371904Y64197380D01*
X51371904Y64197380D02*
X51419523Y64006904D01*
X51419523Y64006904D02*
X51419523Y63673571D01*
X51419523Y63673571D02*
X51371904Y63483095D01*
X51371904Y63483095D02*
X51276666Y63387856D01*
X51276666Y63387856D02*
X51181428Y63340237D01*
X51181428Y63340237D02*
X50990952Y63340237D01*
X50990952Y63340237D02*
X50895714Y63387856D01*
X50895714Y63387856D02*
X50800476Y63483095D01*
X50800476Y63483095D02*
X50752857Y63673571D01*
X50752857Y63673571D02*
X50752857Y64006904D01*
X50752857Y64006904D02*
X50800476Y64197380D01*
X50800476Y64197380D02*
X50895714Y64292618D01*
X50895714Y64292618D02*
X50990952Y64340237D01*
X51705238Y64340237D02*
X52276666Y64340237D01*
X51990952Y63340237D02*
X51990952Y64340237D01*
X53371905Y63340237D02*
X53371905Y64340237D01*
X53848095Y63340237D02*
X53848095Y64340237D01*
X53848095Y64340237D02*
X54419523Y63340237D01*
X54419523Y63340237D02*
X54419523Y64340237D01*
X54848095Y63387856D02*
X54990952Y63340237D01*
X54990952Y63340237D02*
X55229047Y63340237D01*
X55229047Y63340237D02*
X55324285Y63387856D01*
X55324285Y63387856D02*
X55371904Y63435476D01*
X55371904Y63435476D02*
X55419523Y63530714D01*
X55419523Y63530714D02*
X55419523Y63625952D01*
X55419523Y63625952D02*
X55371904Y63721190D01*
X55371904Y63721190D02*
X55324285Y63768809D01*
X55324285Y63768809D02*
X55229047Y63816428D01*
X55229047Y63816428D02*
X55038571Y63864047D01*
X55038571Y63864047D02*
X54943333Y63911666D01*
X54943333Y63911666D02*
X54895714Y63959285D01*
X54895714Y63959285D02*
X54848095Y64054523D01*
X54848095Y64054523D02*
X54848095Y64149761D01*
X54848095Y64149761D02*
X54895714Y64244999D01*
X54895714Y64244999D02*
X54943333Y64292618D01*
X54943333Y64292618D02*
X55038571Y64340237D01*
X55038571Y64340237D02*
X55276666Y64340237D01*
X55276666Y64340237D02*
X55419523Y64292618D01*
X55705238Y64340237D02*
X56276666Y64340237D01*
X55990952Y63340237D02*
X55990952Y64340237D01*
X56562381Y63625952D02*
X57038571Y63625952D01*
X56467143Y63340237D02*
X56800476Y64340237D01*
X56800476Y64340237D02*
X57133809Y63340237D01*
X57943333Y63340237D02*
X57467143Y63340237D01*
X57467143Y63340237D02*
X57467143Y64340237D01*
X58752857Y63340237D02*
X58276667Y63340237D01*
X58276667Y63340237D02*
X58276667Y64340237D01*
X59848096Y63340237D02*
X59848096Y64340237D01*
X59848096Y64340237D02*
X60086191Y64340237D01*
X60086191Y64340237D02*
X60229048Y64292618D01*
X60229048Y64292618D02*
X60324286Y64197380D01*
X60324286Y64197380D02*
X60371905Y64102142D01*
X60371905Y64102142D02*
X60419524Y63911666D01*
X60419524Y63911666D02*
X60419524Y63768809D01*
X60419524Y63768809D02*
X60371905Y63578333D01*
X60371905Y63578333D02*
X60324286Y63483095D01*
X60324286Y63483095D02*
X60229048Y63387856D01*
X60229048Y63387856D02*
X60086191Y63340237D01*
X60086191Y63340237D02*
X59848096Y63340237D01*
X60752858Y64340237D02*
X61419524Y63340237D01*
X61419524Y64340237D02*
X60752858Y63340237D01*
X62229048Y64006904D02*
X62229048Y63340237D01*
X61990953Y64387856D02*
X61752858Y63673571D01*
X61752858Y63673571D02*
X62371905Y63673571D01*
X51729047Y7212800D02*
X51871904Y7165181D01*
X51871904Y7165181D02*
X52109999Y7165181D01*
X52109999Y7165181D02*
X52205237Y7212800D01*
X52205237Y7212800D02*
X52252856Y7260420D01*
X52252856Y7260420D02*
X52300475Y7355658D01*
X52300475Y7355658D02*
X52300475Y7450896D01*
X52300475Y7450896D02*
X52252856Y7546134D01*
X52252856Y7546134D02*
X52205237Y7593753D01*
X52205237Y7593753D02*
X52109999Y7641372D01*
X52109999Y7641372D02*
X51919523Y7688991D01*
X51919523Y7688991D02*
X51824285Y7736610D01*
X51824285Y7736610D02*
X51776666Y7784229D01*
X51776666Y7784229D02*
X51729047Y7879467D01*
X51729047Y7879467D02*
X51729047Y7974705D01*
X51729047Y7974705D02*
X51776666Y8069943D01*
X51776666Y8069943D02*
X51824285Y8117562D01*
X51824285Y8117562D02*
X51919523Y8165181D01*
X51919523Y8165181D02*
X52157618Y8165181D01*
X52157618Y8165181D02*
X52300475Y8117562D01*
X53109999Y7212800D02*
X53014761Y7165181D01*
X53014761Y7165181D02*
X52824285Y7165181D01*
X52824285Y7165181D02*
X52729047Y7212800D01*
X52729047Y7212800D02*
X52681428Y7308039D01*
X52681428Y7308039D02*
X52681428Y7688991D01*
X52681428Y7688991D02*
X52729047Y7784229D01*
X52729047Y7784229D02*
X52824285Y7831848D01*
X52824285Y7831848D02*
X53014761Y7831848D01*
X53014761Y7831848D02*
X53109999Y7784229D01*
X53109999Y7784229D02*
X53157618Y7688991D01*
X53157618Y7688991D02*
X53157618Y7593753D01*
X53157618Y7593753D02*
X52681428Y7498515D01*
X53729047Y7165181D02*
X53633809Y7212800D01*
X53633809Y7212800D02*
X53586190Y7308039D01*
X53586190Y7308039D02*
X53586190Y8165181D01*
X54490952Y7212800D02*
X54395714Y7165181D01*
X54395714Y7165181D02*
X54205238Y7165181D01*
X54205238Y7165181D02*
X54110000Y7212800D01*
X54110000Y7212800D02*
X54062381Y7308039D01*
X54062381Y7308039D02*
X54062381Y7688991D01*
X54062381Y7688991D02*
X54110000Y7784229D01*
X54110000Y7784229D02*
X54205238Y7831848D01*
X54205238Y7831848D02*
X54395714Y7831848D01*
X54395714Y7831848D02*
X54490952Y7784229D01*
X54490952Y7784229D02*
X54538571Y7688991D01*
X54538571Y7688991D02*
X54538571Y7593753D01*
X54538571Y7593753D02*
X54062381Y7498515D01*
X55395714Y7212800D02*
X55300476Y7165181D01*
X55300476Y7165181D02*
X55110000Y7165181D01*
X55110000Y7165181D02*
X55014762Y7212800D01*
X55014762Y7212800D02*
X54967143Y7260420D01*
X54967143Y7260420D02*
X54919524Y7355658D01*
X54919524Y7355658D02*
X54919524Y7641372D01*
X54919524Y7641372D02*
X54967143Y7736610D01*
X54967143Y7736610D02*
X55014762Y7784229D01*
X55014762Y7784229D02*
X55110000Y7831848D01*
X55110000Y7831848D02*
X55300476Y7831848D01*
X55300476Y7831848D02*
X55395714Y7784229D01*
X55681429Y7831848D02*
X56062381Y7831848D01*
X55824286Y8165181D02*
X55824286Y7308039D01*
X55824286Y7308039D02*
X55871905Y7212800D01*
X55871905Y7212800D02*
X55967143Y7165181D01*
X55967143Y7165181D02*
X56062381Y7165181D01*
X56538572Y7165181D02*
X56443334Y7212800D01*
X56443334Y7212800D02*
X56395715Y7260420D01*
X56395715Y7260420D02*
X56348096Y7355658D01*
X56348096Y7355658D02*
X56348096Y7641372D01*
X56348096Y7641372D02*
X56395715Y7736610D01*
X56395715Y7736610D02*
X56443334Y7784229D01*
X56443334Y7784229D02*
X56538572Y7831848D01*
X56538572Y7831848D02*
X56681429Y7831848D01*
X56681429Y7831848D02*
X56776667Y7784229D01*
X56776667Y7784229D02*
X56824286Y7736610D01*
X56824286Y7736610D02*
X56871905Y7641372D01*
X56871905Y7641372D02*
X56871905Y7355658D01*
X56871905Y7355658D02*
X56824286Y7260420D01*
X56824286Y7260420D02*
X56776667Y7212800D01*
X56776667Y7212800D02*
X56681429Y7165181D01*
X56681429Y7165181D02*
X56538572Y7165181D01*
X57300477Y7165181D02*
X57300477Y7831848D01*
X57300477Y7641372D02*
X57348096Y7736610D01*
X57348096Y7736610D02*
X57395715Y7784229D01*
X57395715Y7784229D02*
X57490953Y7831848D01*
X57490953Y7831848D02*
X57586191Y7831848D01*
X51348095Y6260181D02*
X52014761Y6260181D01*
X52014761Y6260181D02*
X51586190Y5260181D01*
X52824285Y5926848D02*
X52824285Y5260181D01*
X52586190Y6307800D02*
X52348095Y5593515D01*
X52348095Y5593515D02*
X52967142Y5593515D01*
X53348095Y5260181D02*
X53348095Y6260181D01*
X53348095Y5783991D02*
X53919523Y5783991D01*
X53919523Y5260181D02*
X53919523Y6260181D01*
X54967142Y5355420D02*
X54919523Y5307800D01*
X54919523Y5307800D02*
X54776666Y5260181D01*
X54776666Y5260181D02*
X54681428Y5260181D01*
X54681428Y5260181D02*
X54538571Y5307800D01*
X54538571Y5307800D02*
X54443333Y5403039D01*
X54443333Y5403039D02*
X54395714Y5498277D01*
X54395714Y5498277D02*
X54348095Y5688753D01*
X54348095Y5688753D02*
X54348095Y5831610D01*
X54348095Y5831610D02*
X54395714Y6022086D01*
X54395714Y6022086D02*
X54443333Y6117324D01*
X54443333Y6117324D02*
X54538571Y6212562D01*
X54538571Y6212562D02*
X54681428Y6260181D01*
X54681428Y6260181D02*
X54776666Y6260181D01*
X54776666Y6260181D02*
X54919523Y6212562D01*
X54919523Y6212562D02*
X54967142Y6164943D01*
X55919523Y5260181D02*
X55348095Y5260181D01*
X55633809Y5260181D02*
X55633809Y6260181D01*
X55633809Y6260181D02*
X55538571Y6117324D01*
X55538571Y6117324D02*
X55443333Y6022086D01*
X55443333Y6022086D02*
X55348095Y5974467D01*
X56252857Y6260181D02*
X56871904Y6260181D01*
X56871904Y6260181D02*
X56538571Y5879229D01*
X56538571Y5879229D02*
X56681428Y5879229D01*
X56681428Y5879229D02*
X56776666Y5831610D01*
X56776666Y5831610D02*
X56824285Y5783991D01*
X56824285Y5783991D02*
X56871904Y5688753D01*
X56871904Y5688753D02*
X56871904Y5450658D01*
X56871904Y5450658D02*
X56824285Y5355420D01*
X56824285Y5355420D02*
X56776666Y5307800D01*
X56776666Y5307800D02*
X56681428Y5260181D01*
X56681428Y5260181D02*
X56395714Y5260181D01*
X56395714Y5260181D02*
X56300476Y5307800D01*
X56300476Y5307800D02*
X56252857Y5355420D01*
X57348095Y5260181D02*
X57538571Y5260181D01*
X57538571Y5260181D02*
X57633809Y5307800D01*
X57633809Y5307800D02*
X57681428Y5355420D01*
X57681428Y5355420D02*
X57776666Y5498277D01*
X57776666Y5498277D02*
X57824285Y5688753D01*
X57824285Y5688753D02*
X57824285Y6069705D01*
X57824285Y6069705D02*
X57776666Y6164943D01*
X57776666Y6164943D02*
X57729047Y6212562D01*
X57729047Y6212562D02*
X57633809Y6260181D01*
X57633809Y6260181D02*
X57443333Y6260181D01*
X57443333Y6260181D02*
X57348095Y6212562D01*
X57348095Y6212562D02*
X57300476Y6164943D01*
X57300476Y6164943D02*
X57252857Y6069705D01*
X57252857Y6069705D02*
X57252857Y5831610D01*
X57252857Y5831610D02*
X57300476Y5736372D01*
X57300476Y5736372D02*
X57348095Y5688753D01*
X57348095Y5688753D02*
X57443333Y5641134D01*
X57443333Y5641134D02*
X57633809Y5641134D01*
X57633809Y5641134D02*
X57729047Y5688753D01*
X57729047Y5688753D02*
X57776666Y5736372D01*
X57776666Y5736372D02*
X57824285Y5831610D01*
X67707381Y6260181D02*
X68374047Y6260181D01*
X68374047Y6260181D02*
X67945476Y5260181D01*
X69183571Y5926848D02*
X69183571Y5260181D01*
X68945476Y6307800D02*
X68707381Y5593515D01*
X68707381Y5593515D02*
X69326428Y5593515D01*
X69707381Y5260181D02*
X69707381Y6260181D01*
X69707381Y5783991D02*
X70278809Y5783991D01*
X70278809Y5260181D02*
X70278809Y6260181D01*
X71326428Y5355420D02*
X71278809Y5307800D01*
X71278809Y5307800D02*
X71135952Y5260181D01*
X71135952Y5260181D02*
X71040714Y5260181D01*
X71040714Y5260181D02*
X70897857Y5307800D01*
X70897857Y5307800D02*
X70802619Y5403039D01*
X70802619Y5403039D02*
X70755000Y5498277D01*
X70755000Y5498277D02*
X70707381Y5688753D01*
X70707381Y5688753D02*
X70707381Y5831610D01*
X70707381Y5831610D02*
X70755000Y6022086D01*
X70755000Y6022086D02*
X70802619Y6117324D01*
X70802619Y6117324D02*
X70897857Y6212562D01*
X70897857Y6212562D02*
X71040714Y6260181D01*
X71040714Y6260181D02*
X71135952Y6260181D01*
X71135952Y6260181D02*
X71278809Y6212562D01*
X71278809Y6212562D02*
X71326428Y6164943D01*
X71945476Y6260181D02*
X72040714Y6260181D01*
X72040714Y6260181D02*
X72135952Y6212562D01*
X72135952Y6212562D02*
X72183571Y6164943D01*
X72183571Y6164943D02*
X72231190Y6069705D01*
X72231190Y6069705D02*
X72278809Y5879229D01*
X72278809Y5879229D02*
X72278809Y5641134D01*
X72278809Y5641134D02*
X72231190Y5450658D01*
X72231190Y5450658D02*
X72183571Y5355420D01*
X72183571Y5355420D02*
X72135952Y5307800D01*
X72135952Y5307800D02*
X72040714Y5260181D01*
X72040714Y5260181D02*
X71945476Y5260181D01*
X71945476Y5260181D02*
X71850238Y5307800D01*
X71850238Y5307800D02*
X71802619Y5355420D01*
X71802619Y5355420D02*
X71755000Y5450658D01*
X71755000Y5450658D02*
X71707381Y5641134D01*
X71707381Y5641134D02*
X71707381Y5879229D01*
X71707381Y5879229D02*
X71755000Y6069705D01*
X71755000Y6069705D02*
X71802619Y6164943D01*
X71802619Y6164943D02*
X71850238Y6212562D01*
X71850238Y6212562D02*
X71945476Y6260181D01*
X72897857Y6260181D02*
X72993095Y6260181D01*
X72993095Y6260181D02*
X73088333Y6212562D01*
X73088333Y6212562D02*
X73135952Y6164943D01*
X73135952Y6164943D02*
X73183571Y6069705D01*
X73183571Y6069705D02*
X73231190Y5879229D01*
X73231190Y5879229D02*
X73231190Y5641134D01*
X73231190Y5641134D02*
X73183571Y5450658D01*
X73183571Y5450658D02*
X73135952Y5355420D01*
X73135952Y5355420D02*
X73088333Y5307800D01*
X73088333Y5307800D02*
X72993095Y5260181D01*
X72993095Y5260181D02*
X72897857Y5260181D01*
X72897857Y5260181D02*
X72802619Y5307800D01*
X72802619Y5307800D02*
X72755000Y5355420D01*
X72755000Y5355420D02*
X72707381Y5450658D01*
X72707381Y5450658D02*
X72659762Y5641134D01*
X72659762Y5641134D02*
X72659762Y5879229D01*
X72659762Y5879229D02*
X72707381Y6069705D01*
X72707381Y6069705D02*
X72755000Y6164943D01*
X72755000Y6164943D02*
X72802619Y6212562D01*
X72802619Y6212562D02*
X72897857Y6260181D01*
X74326429Y5260181D02*
X74850238Y5926848D01*
X74326429Y5926848D02*
X74850238Y5260181D01*
X75183572Y6164943D02*
X75231191Y6212562D01*
X75231191Y6212562D02*
X75326429Y6260181D01*
X75326429Y6260181D02*
X75564524Y6260181D01*
X75564524Y6260181D02*
X75659762Y6212562D01*
X75659762Y6212562D02*
X75707381Y6164943D01*
X75707381Y6164943D02*
X75755000Y6069705D01*
X75755000Y6069705D02*
X75755000Y5974467D01*
X75755000Y5974467D02*
X75707381Y5831610D01*
X75707381Y5831610D02*
X75135953Y5260181D01*
X75135953Y5260181D02*
X75755000Y5260181D01*
X17034286Y2720181D02*
X17034286Y3720181D01*
X17034286Y3720181D02*
X17272381Y3720181D01*
X17272381Y3720181D02*
X17415238Y3672562D01*
X17415238Y3672562D02*
X17510476Y3577324D01*
X17510476Y3577324D02*
X17558095Y3482086D01*
X17558095Y3482086D02*
X17605714Y3291610D01*
X17605714Y3291610D02*
X17605714Y3148753D01*
X17605714Y3148753D02*
X17558095Y2958277D01*
X17558095Y2958277D02*
X17510476Y2863039D01*
X17510476Y2863039D02*
X17415238Y2767800D01*
X17415238Y2767800D02*
X17272381Y2720181D01*
X17272381Y2720181D02*
X17034286Y2720181D01*
X17986667Y3624943D02*
X18034286Y3672562D01*
X18034286Y3672562D02*
X18129524Y3720181D01*
X18129524Y3720181D02*
X18367619Y3720181D01*
X18367619Y3720181D02*
X18462857Y3672562D01*
X18462857Y3672562D02*
X18510476Y3624943D01*
X18510476Y3624943D02*
X18558095Y3529705D01*
X18558095Y3529705D02*
X18558095Y3434467D01*
X18558095Y3434467D02*
X18510476Y3291610D01*
X18510476Y3291610D02*
X17939048Y2720181D01*
X17939048Y2720181D02*
X18558095Y2720181D01*
X18891429Y3720181D02*
X19510476Y3720181D01*
X19510476Y3720181D02*
X19177143Y3339229D01*
X19177143Y3339229D02*
X19320000Y3339229D01*
X19320000Y3339229D02*
X19415238Y3291610D01*
X19415238Y3291610D02*
X19462857Y3243991D01*
X19462857Y3243991D02*
X19510476Y3148753D01*
X19510476Y3148753D02*
X19510476Y2910658D01*
X19510476Y2910658D02*
X19462857Y2815420D01*
X19462857Y2815420D02*
X19415238Y2767800D01*
X19415238Y2767800D02*
X19320000Y2720181D01*
X19320000Y2720181D02*
X19034286Y2720181D01*
X19034286Y2720181D02*
X18939048Y2767800D01*
X18939048Y2767800D02*
X18891429Y2815420D01*
X19939048Y3101134D02*
X20700953Y3101134D01*
X21177143Y2720181D02*
X21177143Y3720181D01*
X21177143Y3720181D02*
X21415238Y3720181D01*
X21415238Y3720181D02*
X21558095Y3672562D01*
X21558095Y3672562D02*
X21653333Y3577324D01*
X21653333Y3577324D02*
X21700952Y3482086D01*
X21700952Y3482086D02*
X21748571Y3291610D01*
X21748571Y3291610D02*
X21748571Y3148753D01*
X21748571Y3148753D02*
X21700952Y2958277D01*
X21700952Y2958277D02*
X21653333Y2863039D01*
X21653333Y2863039D02*
X21558095Y2767800D01*
X21558095Y2767800D02*
X21415238Y2720181D01*
X21415238Y2720181D02*
X21177143Y2720181D01*
X22700952Y2720181D02*
X22129524Y2720181D01*
X22415238Y2720181D02*
X22415238Y3720181D01*
X22415238Y3720181D02*
X22320000Y3577324D01*
X22320000Y3577324D02*
X22224762Y3482086D01*
X22224762Y3482086D02*
X22129524Y3434467D01*
X23558095Y3720181D02*
X23367619Y3720181D01*
X23367619Y3720181D02*
X23272381Y3672562D01*
X23272381Y3672562D02*
X23224762Y3624943D01*
X23224762Y3624943D02*
X23129524Y3482086D01*
X23129524Y3482086D02*
X23081905Y3291610D01*
X23081905Y3291610D02*
X23081905Y2910658D01*
X23081905Y2910658D02*
X23129524Y2815420D01*
X23129524Y2815420D02*
X23177143Y2767800D01*
X23177143Y2767800D02*
X23272381Y2720181D01*
X23272381Y2720181D02*
X23462857Y2720181D01*
X23462857Y2720181D02*
X23558095Y2767800D01*
X23558095Y2767800D02*
X23605714Y2815420D01*
X23605714Y2815420D02*
X23653333Y2910658D01*
X23653333Y2910658D02*
X23653333Y3148753D01*
X23653333Y3148753D02*
X23605714Y3243991D01*
X23605714Y3243991D02*
X23558095Y3291610D01*
X23558095Y3291610D02*
X23462857Y3339229D01*
X23462857Y3339229D02*
X23272381Y3339229D01*
X23272381Y3339229D02*
X23177143Y3291610D01*
X23177143Y3291610D02*
X23129524Y3243991D01*
X23129524Y3243991D02*
X23081905Y3148753D01*
X42428095Y17690181D02*
X42428095Y16880658D01*
X42428095Y16880658D02*
X42475714Y16785420D01*
X42475714Y16785420D02*
X42523333Y16737800D01*
X42523333Y16737800D02*
X42618571Y16690181D01*
X42618571Y16690181D02*
X42809047Y16690181D01*
X42809047Y16690181D02*
X42904285Y16737800D01*
X42904285Y16737800D02*
X42951904Y16785420D01*
X42951904Y16785420D02*
X42999523Y16880658D01*
X42999523Y16880658D02*
X42999523Y17690181D01*
X43428095Y17594943D02*
X43475714Y17642562D01*
X43475714Y17642562D02*
X43570952Y17690181D01*
X43570952Y17690181D02*
X43809047Y17690181D01*
X43809047Y17690181D02*
X43904285Y17642562D01*
X43904285Y17642562D02*
X43951904Y17594943D01*
X43951904Y17594943D02*
X43999523Y17499705D01*
X43999523Y17499705D02*
X43999523Y17404467D01*
X43999523Y17404467D02*
X43951904Y17261610D01*
X43951904Y17261610D02*
X43380476Y16690181D01*
X43380476Y16690181D02*
X43999523Y16690181D01*
X76738095Y21510181D02*
X76738095Y20700658D01*
X76738095Y20700658D02*
X76785714Y20605420D01*
X76785714Y20605420D02*
X76833333Y20557800D01*
X76833333Y20557800D02*
X76928571Y20510181D01*
X76928571Y20510181D02*
X77119047Y20510181D01*
X77119047Y20510181D02*
X77214285Y20557800D01*
X77214285Y20557800D02*
X77261904Y20605420D01*
X77261904Y20605420D02*
X77309523Y20700658D01*
X77309523Y20700658D02*
X77309523Y21510181D01*
X78214285Y21510181D02*
X78023809Y21510181D01*
X78023809Y21510181D02*
X77928571Y21462562D01*
X77928571Y21462562D02*
X77880952Y21414943D01*
X77880952Y21414943D02*
X77785714Y21272086D01*
X77785714Y21272086D02*
X77738095Y21081610D01*
X77738095Y21081610D02*
X77738095Y20700658D01*
X77738095Y20700658D02*
X77785714Y20605420D01*
X77785714Y20605420D02*
X77833333Y20557800D01*
X77833333Y20557800D02*
X77928571Y20510181D01*
X77928571Y20510181D02*
X78119047Y20510181D01*
X78119047Y20510181D02*
X78214285Y20557800D01*
X78214285Y20557800D02*
X78261904Y20605420D01*
X78261904Y20605420D02*
X78309523Y20700658D01*
X78309523Y20700658D02*
X78309523Y20938753D01*
X78309523Y20938753D02*
X78261904Y21033991D01*
X78261904Y21033991D02*
X78214285Y21081610D01*
X78214285Y21081610D02*
X78119047Y21129229D01*
X78119047Y21129229D02*
X77928571Y21129229D01*
X77928571Y21129229D02*
X77833333Y21081610D01*
X77833333Y21081610D02*
X77785714Y21033991D01*
X77785714Y21033991D02*
X77738095Y20938753D01*
X30988095Y17690181D02*
X30988095Y16880658D01*
X30988095Y16880658D02*
X31035714Y16785420D01*
X31035714Y16785420D02*
X31083333Y16737800D01*
X31083333Y16737800D02*
X31178571Y16690181D01*
X31178571Y16690181D02*
X31369047Y16690181D01*
X31369047Y16690181D02*
X31464285Y16737800D01*
X31464285Y16737800D02*
X31511904Y16785420D01*
X31511904Y16785420D02*
X31559523Y16880658D01*
X31559523Y16880658D02*
X31559523Y17690181D01*
X31940476Y17690181D02*
X32559523Y17690181D01*
X32559523Y17690181D02*
X32226190Y17309229D01*
X32226190Y17309229D02*
X32369047Y17309229D01*
X32369047Y17309229D02*
X32464285Y17261610D01*
X32464285Y17261610D02*
X32511904Y17213991D01*
X32511904Y17213991D02*
X32559523Y17118753D01*
X32559523Y17118753D02*
X32559523Y16880658D01*
X32559523Y16880658D02*
X32511904Y16785420D01*
X32511904Y16785420D02*
X32464285Y16737800D01*
X32464285Y16737800D02*
X32369047Y16690181D01*
X32369047Y16690181D02*
X32083333Y16690181D01*
X32083333Y16690181D02*
X31988095Y16737800D01*
X31988095Y16737800D02*
X31940476Y16785420D01*
X19558095Y17690181D02*
X19558095Y16880658D01*
X19558095Y16880658D02*
X19605714Y16785420D01*
X19605714Y16785420D02*
X19653333Y16737800D01*
X19653333Y16737800D02*
X19748571Y16690181D01*
X19748571Y16690181D02*
X19939047Y16690181D01*
X19939047Y16690181D02*
X20034285Y16737800D01*
X20034285Y16737800D02*
X20081904Y16785420D01*
X20081904Y16785420D02*
X20129523Y16880658D01*
X20129523Y16880658D02*
X20129523Y17690181D01*
X21034285Y17356848D02*
X21034285Y16690181D01*
X20796190Y17737800D02*
X20558095Y17023515D01*
X20558095Y17023515D02*
X21177142Y17023515D01*
X53848095Y20230181D02*
X53848095Y19420658D01*
X53848095Y19420658D02*
X53895714Y19325420D01*
X53895714Y19325420D02*
X53943333Y19277800D01*
X53943333Y19277800D02*
X54038571Y19230181D01*
X54038571Y19230181D02*
X54229047Y19230181D01*
X54229047Y19230181D02*
X54324285Y19277800D01*
X54324285Y19277800D02*
X54371904Y19325420D01*
X54371904Y19325420D02*
X54419523Y19420658D01*
X54419523Y19420658D02*
X54419523Y20230181D01*
X55038571Y19801610D02*
X54943333Y19849229D01*
X54943333Y19849229D02*
X54895714Y19896848D01*
X54895714Y19896848D02*
X54848095Y19992086D01*
X54848095Y19992086D02*
X54848095Y20039705D01*
X54848095Y20039705D02*
X54895714Y20134943D01*
X54895714Y20134943D02*
X54943333Y20182562D01*
X54943333Y20182562D02*
X55038571Y20230181D01*
X55038571Y20230181D02*
X55229047Y20230181D01*
X55229047Y20230181D02*
X55324285Y20182562D01*
X55324285Y20182562D02*
X55371904Y20134943D01*
X55371904Y20134943D02*
X55419523Y20039705D01*
X55419523Y20039705D02*
X55419523Y19992086D01*
X55419523Y19992086D02*
X55371904Y19896848D01*
X55371904Y19896848D02*
X55324285Y19849229D01*
X55324285Y19849229D02*
X55229047Y19801610D01*
X55229047Y19801610D02*
X55038571Y19801610D01*
X55038571Y19801610D02*
X54943333Y19753991D01*
X54943333Y19753991D02*
X54895714Y19706372D01*
X54895714Y19706372D02*
X54848095Y19611134D01*
X54848095Y19611134D02*
X54848095Y19420658D01*
X54848095Y19420658D02*
X54895714Y19325420D01*
X54895714Y19325420D02*
X54943333Y19277800D01*
X54943333Y19277800D02*
X55038571Y19230181D01*
X55038571Y19230181D02*
X55229047Y19230181D01*
X55229047Y19230181D02*
X55324285Y19277800D01*
X55324285Y19277800D02*
X55371904Y19325420D01*
X55371904Y19325420D02*
X55419523Y19420658D01*
X55419523Y19420658D02*
X55419523Y19611134D01*
X55419523Y19611134D02*
X55371904Y19706372D01*
X55371904Y19706372D02*
X55324285Y19753991D01*
X55324285Y19753991D02*
X55229047Y19801610D01*
X8128095Y17690181D02*
X8128095Y16880658D01*
X8128095Y16880658D02*
X8175714Y16785420D01*
X8175714Y16785420D02*
X8223333Y16737800D01*
X8223333Y16737800D02*
X8318571Y16690181D01*
X8318571Y16690181D02*
X8509047Y16690181D01*
X8509047Y16690181D02*
X8604285Y16737800D01*
X8604285Y16737800D02*
X8651904Y16785420D01*
X8651904Y16785420D02*
X8699523Y16880658D01*
X8699523Y16880658D02*
X8699523Y17690181D01*
X9651904Y17690181D02*
X9175714Y17690181D01*
X9175714Y17690181D02*
X9128095Y17213991D01*
X9128095Y17213991D02*
X9175714Y17261610D01*
X9175714Y17261610D02*
X9270952Y17309229D01*
X9270952Y17309229D02*
X9509047Y17309229D01*
X9509047Y17309229D02*
X9604285Y17261610D01*
X9604285Y17261610D02*
X9651904Y17213991D01*
X9651904Y17213991D02*
X9699523Y17118753D01*
X9699523Y17118753D02*
X9699523Y16880658D01*
X9699523Y16880658D02*
X9651904Y16785420D01*
X9651904Y16785420D02*
X9604285Y16737800D01*
X9604285Y16737800D02*
X9509047Y16690181D01*
X9509047Y16690181D02*
X9270952Y16690181D01*
X9270952Y16690181D02*
X9175714Y16737800D01*
X9175714Y16737800D02*
X9128095Y16785420D01*
X65288095Y21505181D02*
X65288095Y20695658D01*
X65288095Y20695658D02*
X65335714Y20600420D01*
X65335714Y20600420D02*
X65383333Y20552800D01*
X65383333Y20552800D02*
X65478571Y20505181D01*
X65478571Y20505181D02*
X65669047Y20505181D01*
X65669047Y20505181D02*
X65764285Y20552800D01*
X65764285Y20552800D02*
X65811904Y20600420D01*
X65811904Y20600420D02*
X65859523Y20695658D01*
X65859523Y20695658D02*
X65859523Y21505181D01*
X66240476Y21505181D02*
X66907142Y21505181D01*
X66907142Y21505181D02*
X66478571Y20505181D01*
D13*
X53848095Y60872948D02*
X53848095Y60063425D01*
X53848095Y60063425D02*
X53895714Y59968187D01*
X53895714Y59968187D02*
X53943333Y59920567D01*
X53943333Y59920567D02*
X54038571Y59872948D01*
X54038571Y59872948D02*
X54229047Y59872948D01*
X54229047Y59872948D02*
X54324285Y59920567D01*
X54324285Y59920567D02*
X54371904Y59968187D01*
X54371904Y59968187D02*
X54419523Y60063425D01*
X54419523Y60063425D02*
X54419523Y60872948D01*
X55419523Y59872948D02*
X54848095Y59872948D01*
X55133809Y59872948D02*
X55133809Y60872948D01*
X55133809Y60872948D02*
X55038571Y60730091D01*
X55038571Y60730091D02*
X54943333Y60634853D01*
X54943333Y60634853D02*
X54848095Y60587234D01*
D14*
X61130000Y38605000D02*
X61130000Y41405000D01*
X61130000Y41405000D02*
X48090000Y41405000D01*
X58420000Y38605000D02*
X58420000Y41405000D01*
X48090000Y38605000D02*
X61130000Y38605000D01*
X48090000Y41405000D02*
X48090000Y38605000D01*
X82080000Y30340000D02*
X82080000Y30965000D01*
X82080000Y30340000D02*
X78040000Y30340000D01*
X82080000Y32555000D02*
X82080000Y33180000D01*
X82080000Y33180000D02*
X78040000Y33180000D01*
X78040000Y30340000D02*
X78040000Y30965000D01*
X78040000Y32555000D02*
X78040000Y33180000D01*
X40540000Y29900000D02*
X40540000Y4380000D01*
X40540000Y4380000D02*
X45840000Y4380000D01*
X42190000Y29900000D02*
X40540000Y29900000D01*
X45840000Y29900000D02*
X44190000Y29900000D01*
X45840000Y4380000D02*
X45840000Y29900000D01*
X44190000Y29900000D02*
G75*
G02*
X42190000Y29900000I-1000000J0D01*
G01*
X74850000Y29915000D02*
X74850000Y12015000D01*
X74850000Y12015000D02*
X80150000Y12015000D01*
X76500000Y29915000D02*
X74850000Y29915000D01*
X80150000Y29915000D02*
X78500000Y29915000D01*
X80150000Y12015000D02*
X80150000Y29915000D01*
X78500000Y29915000D02*
G75*
G02*
X76500000Y29915000I-1000000J0D01*
G01*
X29110000Y29900000D02*
X29110000Y4380000D01*
X29110000Y4380000D02*
X34410000Y4380000D01*
X30760000Y29900000D02*
X29110000Y29900000D01*
X34410000Y29900000D02*
X32760000Y29900000D01*
X34410000Y4380000D02*
X34410000Y29900000D01*
X32760000Y29900000D02*
G75*
G02*
X30760000Y29900000I-1000000J0D01*
G01*
X17680000Y29900000D02*
X17680000Y4380000D01*
X17680000Y4380000D02*
X22980000Y4380000D01*
X19330000Y29900000D02*
X17680000Y29900000D01*
X22980000Y29900000D02*
X21330000Y29900000D01*
X22980000Y4380000D02*
X22980000Y29900000D01*
X21330000Y29900000D02*
G75*
G02*
X19330000Y29900000I-1000000J0D01*
G01*
X36310000Y30330000D02*
X36310000Y30955000D01*
X36310000Y30330000D02*
X32270000Y30330000D01*
X36310000Y32545000D02*
X36310000Y33170000D01*
X36310000Y33170000D02*
X32270000Y33170000D01*
X32270000Y30330000D02*
X32270000Y30955000D01*
X32270000Y32545000D02*
X32270000Y33170000D01*
X47740000Y30330000D02*
X47740000Y30955000D01*
X47740000Y30330000D02*
X43700000Y30330000D01*
X47740000Y32545000D02*
X47740000Y33170000D01*
X47740000Y33170000D02*
X43700000Y33170000D01*
X43700000Y30330000D02*
X43700000Y30955000D01*
X43700000Y32545000D02*
X43700000Y33170000D01*
X13450000Y30330000D02*
X13450000Y30955000D01*
X13450000Y30330000D02*
X9410000Y30330000D01*
X13450000Y32545000D02*
X13450000Y33170000D01*
X13450000Y33170000D02*
X9410000Y33170000D01*
X9410000Y30330000D02*
X9410000Y30955000D01*
X9410000Y32545000D02*
X9410000Y33170000D01*
X51960000Y29905000D02*
X51960000Y9465000D01*
X51960000Y9465000D02*
X57260000Y9465000D01*
X53610000Y29905000D02*
X51960000Y29905000D01*
X57260000Y29905000D02*
X55610000Y29905000D01*
X57260000Y9465000D02*
X57260000Y29905000D01*
X55610000Y29905000D02*
G75*
G02*
X53610000Y29905000I-1000000J0D01*
G01*
X24900000Y30330000D02*
X24900000Y30955000D01*
X24900000Y30330000D02*
X20860000Y30330000D01*
X24900000Y32545000D02*
X24900000Y33170000D01*
X24900000Y33170000D02*
X20860000Y33170000D01*
X20860000Y30330000D02*
X20860000Y30955000D01*
X20860000Y32545000D02*
X20860000Y33170000D01*
X6250000Y29900000D02*
X6250000Y4380000D01*
X6250000Y4380000D02*
X11550000Y4380000D01*
X7900000Y29900000D02*
X6250000Y29900000D01*
X11550000Y29900000D02*
X9900000Y29900000D01*
X11550000Y4380000D02*
X11550000Y29900000D01*
X9900000Y29900000D02*
G75*
G02*
X7900000Y29900000I-1000000J0D01*
G01*
X59190000Y30330000D02*
X59190000Y30955000D01*
X59190000Y30330000D02*
X55150000Y30330000D01*
X59190000Y32545000D02*
X59190000Y33170000D01*
X59190000Y33170000D02*
X55150000Y33170000D01*
X55150000Y30330000D02*
X55150000Y30955000D01*
X55150000Y32545000D02*
X55150000Y33170000D01*
X70630000Y30335000D02*
X70630000Y30960000D01*
X70630000Y30335000D02*
X66590000Y30335000D01*
X70630000Y32550000D02*
X70630000Y33175000D01*
X70630000Y33175000D02*
X66590000Y33175000D01*
X66590000Y30335000D02*
X66590000Y30960000D01*
X66590000Y32550000D02*
X66590000Y33175000D01*
X41125000Y60845000D02*
X41125000Y64885000D01*
X41125000Y64885000D02*
X41750000Y64885000D01*
X43340000Y64885000D02*
X43965000Y64885000D01*
X43965000Y60845000D02*
X43965000Y64885000D01*
X41125000Y60845000D02*
X41750000Y60845000D01*
X43340000Y60845000D02*
X43965000Y60845000D01*
X67460000Y64885000D02*
X67460000Y60845000D01*
X67460000Y60845000D02*
X66835000Y60845000D01*
X65245000Y60845000D02*
X64620000Y60845000D01*
X64620000Y64885000D02*
X64620000Y60845000D01*
X67460000Y64885000D02*
X66835000Y64885000D01*
X65245000Y64885000D02*
X64620000Y64885000D01*
X79481000Y61972359D02*
X79481000Y62602359D01*
X79166000Y62287359D02*
X79796000Y62287359D01*
X78090000Y65472600D02*
X84550000Y65472600D01*
X78090000Y65512600D02*
X84550000Y65512600D01*
X78090000Y65552600D02*
X84550000Y65552600D01*
X78092000Y65592600D02*
X84548000Y65592600D01*
X78093000Y65632600D02*
X84547000Y65632600D01*
X78096000Y65672600D02*
X84544000Y65672600D01*
X78098000Y65712600D02*
X80280000Y65712600D01*
X82360000Y65712600D02*
X84542000Y65712600D01*
X78102000Y65752600D02*
X80280000Y65752600D01*
X82360000Y65752600D02*
X84538000Y65752600D01*
X78105000Y65792600D02*
X80280000Y65792600D01*
X82360000Y65792600D02*
X84535000Y65792600D01*
X78109000Y65832600D02*
X80280000Y65832600D01*
X82360000Y65832600D02*
X84531000Y65832600D01*
X78114000Y65872600D02*
X80280000Y65872600D01*
X82360000Y65872600D02*
X84526000Y65872600D01*
X78119000Y65912600D02*
X80280000Y65912600D01*
X82360000Y65912600D02*
X84521000Y65912600D01*
X78125000Y65952600D02*
X80280000Y65952600D01*
X82360000Y65952600D02*
X84515000Y65952600D01*
X78131000Y65992600D02*
X80280000Y65992600D01*
X82360000Y65992600D02*
X84509000Y65992600D01*
X78138000Y66032600D02*
X80280000Y66032600D01*
X82360000Y66032600D02*
X84502000Y66032600D01*
X78145000Y66072600D02*
X80280000Y66072600D01*
X82360000Y66072600D02*
X84495000Y66072600D01*
X78153000Y66112600D02*
X80280000Y66112600D01*
X82360000Y66112600D02*
X84487000Y66112600D01*
X78161000Y66152600D02*
X80280000Y66152600D01*
X82360000Y66152600D02*
X84479000Y66152600D01*
X78170000Y66193600D02*
X80280000Y66193600D01*
X82360000Y66193600D02*
X84470000Y66193600D01*
X78179000Y66233600D02*
X80280000Y66233600D01*
X82360000Y66233600D02*
X84461000Y66233600D01*
X78189000Y66273600D02*
X80280000Y66273600D01*
X82360000Y66273600D02*
X84451000Y66273600D01*
X78199000Y66313600D02*
X80280000Y66313600D01*
X82360000Y66313600D02*
X84441000Y66313600D01*
X78210000Y66353600D02*
X80280000Y66353600D01*
X82360000Y66353600D02*
X84430000Y66353600D01*
X78222000Y66393600D02*
X80280000Y66393600D01*
X82360000Y66393600D02*
X84418000Y66393600D01*
X78234000Y66433600D02*
X80280000Y66433600D01*
X82360000Y66433600D02*
X84406000Y66433600D01*
X78246000Y66473600D02*
X80280000Y66473600D01*
X82360000Y66473600D02*
X84394000Y66473600D01*
X78259000Y66513600D02*
X80280000Y66513600D01*
X82360000Y66513600D02*
X84381000Y66513600D01*
X78273000Y66553600D02*
X80280000Y66553600D01*
X82360000Y66553600D02*
X84367000Y66553600D01*
X78287000Y66593600D02*
X80280000Y66593600D01*
X82360000Y66593600D02*
X84353000Y66593600D01*
X78302000Y66633600D02*
X80280000Y66633600D01*
X82360000Y66633600D02*
X84338000Y66633600D01*
X78318000Y66673600D02*
X80280000Y66673600D01*
X82360000Y66673600D02*
X84322000Y66673600D01*
X78334000Y66713600D02*
X80280000Y66713600D01*
X82360000Y66713600D02*
X84306000Y66713600D01*
X78350000Y66753600D02*
X80280000Y66753600D01*
X82360000Y66753600D02*
X84290000Y66753600D01*
X78368000Y66793600D02*
X80280000Y66793600D01*
X82360000Y66793600D02*
X84272000Y66793600D01*
X78386000Y66833600D02*
X80280000Y66833600D01*
X82360000Y66833600D02*
X84254000Y66833600D01*
X78404000Y66873600D02*
X80280000Y66873600D01*
X82360000Y66873600D02*
X84236000Y66873600D01*
X78424000Y66913600D02*
X80280000Y66913600D01*
X82360000Y66913600D02*
X84216000Y66913600D01*
X78444000Y66953600D02*
X80280000Y66953600D01*
X82360000Y66953600D02*
X84196000Y66953600D01*
X78464000Y66993600D02*
X80280000Y66993600D01*
X82360000Y66993600D02*
X84176000Y66993600D01*
X78486000Y67033600D02*
X80280000Y67033600D01*
X82360000Y67033600D02*
X84154000Y67033600D01*
X78508000Y67073600D02*
X80280000Y67073600D01*
X82360000Y67073600D02*
X84132000Y67073600D01*
X78530000Y67113600D02*
X80280000Y67113600D01*
X82360000Y67113600D02*
X84110000Y67113600D01*
X78554000Y67153600D02*
X80280000Y67153600D01*
X82360000Y67153600D02*
X84086000Y67153600D01*
X78578000Y67193600D02*
X80280000Y67193600D01*
X82360000Y67193600D02*
X84062000Y67193600D01*
X78604000Y67233600D02*
X80280000Y67233600D01*
X82360000Y67233600D02*
X84036000Y67233600D01*
X78630000Y67273600D02*
X80280000Y67273600D01*
X82360000Y67273600D02*
X84010000Y67273600D01*
X78656000Y67313600D02*
X80280000Y67313600D01*
X82360000Y67313600D02*
X83984000Y67313600D01*
X78684000Y67353600D02*
X80280000Y67353600D01*
X82360000Y67353600D02*
X83956000Y67353600D01*
X78713000Y67393600D02*
X80280000Y67393600D01*
X82360000Y67393600D02*
X83927000Y67393600D01*
X78742000Y67433600D02*
X80280000Y67433600D01*
X82360000Y67433600D02*
X83898000Y67433600D01*
X78772000Y67473600D02*
X80280000Y67473600D01*
X82360000Y67473600D02*
X83868000Y67473600D01*
X78804000Y67513600D02*
X80280000Y67513600D01*
X82360000Y67513600D02*
X83836000Y67513600D01*
X78836000Y67553600D02*
X80280000Y67553600D01*
X82360000Y67553600D02*
X83804000Y67553600D01*
X78870000Y67593600D02*
X80280000Y67593600D01*
X82360000Y67593600D02*
X83770000Y67593600D01*
X78904000Y67633600D02*
X80280000Y67633600D01*
X82360000Y67633600D02*
X83736000Y67633600D01*
X78940000Y67673600D02*
X80280000Y67673600D01*
X82360000Y67673600D02*
X83700000Y67673600D01*
X78977000Y67713600D02*
X80280000Y67713600D01*
X82360000Y67713600D02*
X83663000Y67713600D01*
X79015000Y67753600D02*
X80280000Y67753600D01*
X82360000Y67753600D02*
X83625000Y67753600D01*
X79055000Y67793600D02*
X83585000Y67793600D01*
X79096000Y67833600D02*
X83544000Y67833600D01*
X79138000Y67873600D02*
X83502000Y67873600D01*
X79183000Y67913600D02*
X83457000Y67913600D01*
X79228000Y67953600D02*
X83412000Y67953600D01*
X79276000Y67993600D02*
X83364000Y67993600D01*
X79325000Y68033600D02*
X83315000Y68033600D01*
X79376000Y68073600D02*
X83264000Y68073600D01*
X79430000Y68113600D02*
X83210000Y68113600D01*
X79486000Y68153600D02*
X83154000Y68153600D01*
X79544000Y68193600D02*
X83096000Y68193600D01*
X79606000Y68233600D02*
X83034000Y68233600D01*
X79670000Y68273600D02*
X82970000Y68273600D01*
X79739000Y68313600D02*
X82901000Y68313600D01*
X79811000Y68353600D02*
X82829000Y68353600D01*
X79888000Y68393600D02*
X82752000Y68393600D01*
X79970000Y68433600D02*
X82670000Y68433600D01*
X80058000Y68473600D02*
X82582000Y68473600D01*
X80155000Y68513600D02*
X82485000Y68513600D01*
X80261000Y68553600D02*
X82379000Y68553600D01*
X80380000Y68593600D02*
X82260000Y68593600D01*
X80518000Y68633600D02*
X82122000Y68633600D01*
X80687000Y68673600D02*
X81953000Y68673600D01*
X80918000Y68713600D02*
X81722000Y68713600D01*
X84590000Y65472600D02*
G75*
G02*
X78050000Y65472600I-3270000J0D01*
G01*
X78050000Y65472600D02*
G75*
G02*
X84590000Y65472600I3270000J0D01*
G01*
X63400000Y29910000D02*
X63400000Y12010000D01*
X63400000Y12010000D02*
X68700000Y12010000D01*
X65050000Y29910000D02*
X63400000Y29910000D01*
X68700000Y29910000D02*
X67050000Y29910000D01*
X68700000Y12010000D02*
X68700000Y29910000D01*
X67050000Y29910000D02*
G75*
G02*
X65050000Y29910000I-1000000J0D01*
G01*
D15*
X33020000Y86995000D02*
X33020000Y45085000D01*
X33020000Y44450000D02*
X33020000Y45085000D01*
X33655000Y43815000D02*
X33020000Y44450000D01*
X34290000Y43815000D02*
X33655000Y43815000D01*
X34290000Y43815000D02*
X76200000Y43815000D01*
X76200000Y86995000D02*
X33020000Y86995000D01*
X76200000Y43815000D02*
X76200000Y86995000D01*
D16*
X34290000Y45085000D03*
D17*
X34290000Y47625000D03*
X34290000Y50165000D03*
X34290000Y52705000D03*
X34290000Y55245000D03*
X34290000Y57785000D03*
X34290000Y60325000D03*
X34290000Y62865000D03*
X34290000Y65405000D03*
X34290000Y67945000D03*
X34290000Y70485000D03*
X34290000Y73025000D03*
X34290000Y75565000D03*
X34290000Y78105000D03*
X34290000Y80645000D03*
X34290000Y83185000D03*
X34290000Y85725000D03*
X36830000Y45085000D03*
X36830000Y47625000D03*
X36830000Y50165000D03*
X36830000Y52705000D03*
X36830000Y55245000D03*
X36830000Y57785000D03*
X36830000Y60325000D03*
X36830000Y62865000D03*
X36830000Y65405000D03*
X36830000Y67945000D03*
X36830000Y70485000D03*
X36830000Y73025000D03*
X36830000Y75565000D03*
X36830000Y78105000D03*
X36830000Y80645000D03*
X36830000Y83185000D03*
X36830000Y85725000D03*
X39370000Y45085000D03*
X39370000Y47625000D03*
X39370000Y50165000D03*
X39370000Y52705000D03*
X39370000Y55245000D03*
X39370000Y57785000D03*
X39370000Y60325000D03*
X39370000Y62865000D03*
X39370000Y65405000D03*
X39370000Y67945000D03*
X39370000Y70485000D03*
X39370000Y73025000D03*
X39370000Y75565000D03*
X39370000Y78105000D03*
X39370000Y80645000D03*
X39370000Y83185000D03*
X39370000Y85725000D03*
X41910000Y45085000D03*
X41910000Y47625000D03*
X41910000Y50165000D03*
X41910000Y80645000D03*
X41910000Y83185000D03*
X41910000Y85725000D03*
X44450000Y45085000D03*
X44450000Y47625000D03*
X44450000Y50165000D03*
X44450000Y80645000D03*
X44450000Y83185000D03*
X44450000Y85725000D03*
X46990000Y45085000D03*
X46990000Y47625000D03*
X46990000Y50165000D03*
X46990000Y80645000D03*
X46990000Y83185000D03*
X46990000Y85725000D03*
X49530000Y45085000D03*
X49530000Y47625000D03*
X49530000Y50165000D03*
X49530000Y80645000D03*
X49530000Y83185000D03*
X49530000Y85725000D03*
X52070000Y45085000D03*
X52070000Y47625000D03*
X52070000Y50165000D03*
X52070000Y80645000D03*
X52070000Y83185000D03*
X52070000Y85725000D03*
X54610000Y45085000D03*
X54610000Y47625000D03*
X54610000Y50165000D03*
X54610000Y80645000D03*
X54610000Y83185000D03*
X54610000Y85725000D03*
X57150000Y45085000D03*
X57150000Y47625000D03*
X57150000Y50165000D03*
X57150000Y80645000D03*
X57150000Y83185000D03*
X57150000Y85725000D03*
X59690000Y45085000D03*
X59690000Y47625000D03*
X59690000Y50165000D03*
X59690000Y80645000D03*
X59690000Y83185000D03*
X59690000Y85725000D03*
X62230000Y45085000D03*
X62230000Y47625000D03*
X62230000Y50165000D03*
X62230000Y80645000D03*
X62230000Y83185000D03*
X62230000Y85725000D03*
X64770000Y45085000D03*
X64770000Y47625000D03*
X64770000Y50165000D03*
X64770000Y80645000D03*
X64770000Y83185000D03*
X64770000Y85725000D03*
X67310000Y45085000D03*
X67310000Y47625000D03*
X67310000Y50165000D03*
X67310000Y80645000D03*
X67310000Y83185000D03*
X67310000Y85725000D03*
X69850000Y45085000D03*
X69850000Y47625000D03*
X69850000Y50165000D03*
X69850000Y52705000D03*
X69850000Y55245000D03*
X69850000Y57785000D03*
X69850000Y60325000D03*
X69850000Y62865000D03*
X69850000Y65405000D03*
X69850000Y67945000D03*
X69850000Y70485000D03*
X69850000Y73025000D03*
X69850000Y75565000D03*
X69850000Y78105000D03*
X69850000Y80645000D03*
X69850000Y83185000D03*
X69850000Y85725000D03*
X72390000Y45085000D03*
X72390000Y47625000D03*
X72390000Y50165000D03*
X72390000Y52705000D03*
X72390000Y55245000D03*
X72390000Y57785000D03*
X72390000Y60325000D03*
X72390000Y62865000D03*
X72390000Y65405000D03*
X72390000Y67945000D03*
X72390000Y70485000D03*
X72390000Y73025000D03*
X72390000Y75565000D03*
X72390000Y78105000D03*
X72390000Y80645000D03*
X72390000Y83185000D03*
X72390000Y85725000D03*
X74930000Y45085000D03*
X74930000Y47625000D03*
X74930000Y50165000D03*
X74930000Y52705000D03*
X74930000Y55245000D03*
X74930000Y57785000D03*
X74930000Y60325000D03*
X74930000Y62865000D03*
X74930000Y65405000D03*
X74930000Y67945000D03*
X74930000Y70485000D03*
X74930000Y73025000D03*
X74930000Y75565000D03*
X74930000Y78105000D03*
X74930000Y80645000D03*
X74930000Y83185000D03*
X74930000Y85725000D03*
M02*
